<svg xmlns="http://www.w3.org/2000/svg" viewBox="0 0 40 40"><path d="M20 1a19 19 0 1 0 7.4 1.49A19 19 0 0 0 20 1m0-1A20 20 0 1 1 0 20 20 20 0 0 1 20 0zm5.23 22.15a1.76 1.76 0 0 0-1.23-.59 1.78 1.78 0 0 0-1.3.59l-1.2 1.2-.3-.16c-.13-.06-.25-.13-.37-.2a12.86 12.86 0 0 1-3.13-2.85 7.94 7.94 0 0 1-1-1.62l.9-.86.32-.33a1.74 1.74 0 0 0 .09-2.45l-.17-.18-2.07-2.07a1.8 1.8 0 0 0-1.33-.63 1.84 1.84 0 0 0-1.29.56h0l-1.3 1.3a2.8 2.8 0 0 0-.85 1.82 6.8 6.8 0 0 0 .49 2.82 16.35 16.35 0 0 0 2.91 4.84 18.08 18.08 0 0 0 6 4.66 9.35 9.35 0 0 0 3.35 1H24a2.86 2.86 0 0 0 2.2-.94h0q.32-.36.66-.7c.17-.15.33-.32.5-.5a1.92 1.92 0 0 0 .57-1.31 1.85 1.85 0 0 0-.58-1.3zm1.37 4h0l-.47.46a8.73 8.73 0 0 0-.73.76A1.86 1.86 0 0 1 24 28h-.18a8.08 8.08 0 0 1-3-.89 16.68 16.68 0 0 1-5.61-4.39 15.43 15.43 0 0 1-2.74-4.55 5.41 5.41 0 0 1-.47-2.41 1.69 1.69 0 0 1 .53-1.12l1.3-1.3a.74.74 0 0 1 .57-.27.8.8 0 0 1 .56.26h0l.7.68.36.37 1 1a.71.71 0 0 1 .18 1h0a.69.69 0 0 1-.17.17l-.32.32a11 11 0 0 1-1 .93h0a.77.77 0 0 0-.2.86h0a8.38 8.38 0 0 0 1.22 2h0a13.92 13.92 0 0 0 3.38 3.07 4.23 4.23 0 0 0 .47.25l.38.2a.85.85 0 0 0 .38.09.83.83 0 0 0 .57-.27l1.3-1.3a.89.89 0 0 1 .57-.28.79.79 0 0 1 .55.27h0L26.6 25a.75.75 0 0 1 .15 1 .54.54 0 0 1-.15.15zm-5.87-10.87a4.89 4.89 0 0 1 4 4 .51.51 0 0 0 .5.43h.1a.51.51 0 0 0 .42-.59h0a5.93 5.93 0 0 0-4.82-4.82.52.52 0 0 0-.57.45.5.5 0 0 0 .38.55zM29 18.94A9.7 9.7 0 0 0 21.05 11a.51.51 0 0 0-.54.48h0a.52.52 0 0 0 .37.52h0A8.7 8.7 0 0 1 28 19.11a.52.52 0 0 0 .51.42h.1A.5.5 0 0 0 29 19z" fill="#AFD104"/></svg>