<svg xmlns="http://www.w3.org/2000/svg" viewBox="0 0 41 41"><path d="M20.5 41A20.5 20.5 0 1 1 41 20.5 20.53 20.53 0 0 1 20.5 41zm0-40A19.5 19.5 0 1 0 40 20.5 19.53 19.53 0 0 0 20.5 1zm0 28.5a1.55 1.55 0 0 1-1.09-.45c-.24-.24-5.78-5.85-5.78-10.68a6.87 6.87 0 0 1 13.74 0h0c0 4.84-5.55 10.44-5.78 10.68a1.55 1.55 0 0 1-1.09.45zm0-17a5.93 5.93 0 0 0-5.92 5.92c0 4.45 5.28 9.78 5.5 10a.6.6 0 0 0 .84 0c.22-.23 5.5-5.55 5.5-10h0a5.91 5.91 0 0 0-5.92-5.92zm0 9.6a3.67 3.67 0 1 1 3.67-3.67A3.68 3.68 0 0 1 20.5 22zm0-6.4a2.73 2.73 0 1 0 2.72 2.73 2.73 2.73 0 0 0-2.72-2.78z" fill="#AFD104"/></svg>