<svg xmlns="http://www.w3.org/2000/svg" viewBox="0 0 443.8 480.6" xmlns:v="https://vecta.io/nano"><style><![CDATA[.I{fill:#39952c}.J{fill:#7cd031}.K{fill:#121723}.L{fill:#6cac03}.M{fill:#afd104}]]></style><path d="M443 380l-8-42a43.4 43.4 0 0 0-3.7-11.4 32.3 32.3 0 0 0-5-7.3c-.6-.7-1.3-1.4-2-2a29 29 0 0 0-7.3-4.8l-1.4-.6-1.4-.5a34.3 34.3 0 0 0-5.9-1.4l-2.7-.3-24.7-.1-1 .2-.6.2-1.3.5-.5.3a3.9 3.9 0 0 0-.4.2l-.8.6a10 10 0 0 0-.6.5l-2 2-1.5-.8c-.5-.3-1-.5-1.5-.7l-.3-.1c-.5-.2-1-.4-1.6-.6l-2.3-.8a37.1 37.1 0 0 0-5.3-1.1 47.6 47.6 0 0 0-6-.4l-20.7.1c-.2 0-.5.1-.7.1l-1 .3h-.4c-.2.1-.4.1-.6.2l-.4.2a5.3 5.3 0 0 0-.5.3 3.7 3.7 0 0 0-.4.3l-1.3 1-.6.6-.2.3-.4.4-1.6 2a10.2 10.2 0 0 0-.8-1.6h0l-.4-.6c-.1-.2-.3-.4-.4-.6h0l-.5-.5-1-1-.6-.4-.8-.5-1.2-.5-.7-.2-1-.2-.5-.1h-19.7a10 10 0 0 0-4.5 1.1l-1-.4a9.6 9.6 0 0 0-1-.3h-.1a8.6 8.6 0 0 0-1-.2 1 1 0 0 0-.2 0 8.9 8.9 0 0 0-1.2-.1h-4l3-1.3 3-1.5a31.4 31.4 0 0 0 3.4-2l13.6-8.5a11.6 11.6 0 0 0 3.5.8c.2 0 .6.1 1 .1h.5a13.9 13.9 0 0 0 10.7-5.5l7-1a14.3 14.3 0 0 0 12 5.8 19.6 19.6 0 0 0 11.6-3.9c4.3-3.3 10.2-12 9-20a12.8 12.8 0 0 0-2.8-6.4 18.2 18.2 0 0 0-1.5-7.4l-1.6-3.2a14.4 14.4 0 0 1-1.4-3.2 16.7 16.7 0 0 0-4.6-7.5 15.2 15.2 0 0 1-1-1.2l-.6-1a26.1 26.1 0 0 0-2-3.2 25.8 25.8 0 0 0-.7-5.3 26.9 26.9 0 0 0-1.7-4.5 10.8 10.8 0 0 1-.7-1.8l-.1-.6a20.6 20.6 0 0 0-3.5-10.4 20 20 0 0 0-6.3-5.5h-.1l-.8-.5c-.2-.1-.6-.6-1-1a17.4 17.4 0 0 0-5.9-4 12.9 12.9 0 0 0-4.6-.8 13.3 13.3 0 0 0-1.7.1 4269 4269 0 0 1-25.6-50.3L230 4.3a7 7 0 0 0-5.9-4.2h-.6C222.7 0 222 0 221 0h0c-14.3 0-24.2 9.7-27.8 15.4l-.3.5a7 7 0 0 0-.2 7.2l98 176.5-48-22.6.2-5c.8-20 .8-27.2.1-30.4A46.3 46.3 0 0 0 224 114a45 45 0 0 0-12.2-5.8 42.1 42.1 0 0 0-12-1.7 56.8 56.8 0 0 0-33 11.3c-6.7 5-10.8 11-13.6 20.3l-1.5 5a430 430 0 0 0-10.9 7.3l-4.6 3.4a7 7 0 0 0 .8 11.4l1.3.8c1 .5 1.7 1 2.6 1.7a43.4 43.4 0 0 0 6.2 3.7c.7 5.6 3 11.2 8.3 15a7 7 0 0 0 .6 3 7.1 7.1 0 0 0 .8 1.4 60 60 0 0 0-22.9 22.7 46 46 0 0 0-4 17.8 54.4 54.4 0 0 1-1.1 8.3l-2.8 10c-1.4 4.7-3 9.6-4 14.4l-2 10.4a88 88 0 0 1-9.6 30.8c-.1.2-.5.7-.8 1.2l-.1.1a30.2 30.2 0 0 0-4.3 7.9 25 25 0 0 0-7.1-3.7c-.7-.2-1.4-.4-2-.6l-1.2-.3a39 39 0 0 0-8.1-.8h0a37 37 0 0 0-10.6 1.5l-1 .3a29.1 29.1 0 0 0-9.9 5.5h0l-1.6 1.5c-.1.1-.2.2-.3.3l-3.3-3c-.5-.4-1-.8-1.4-1.2l-.2-.1a21 21 0 0 0-1.7-1.1H57c-.5-.3-1-.6-1.6-1l-2.2-1a31.3 31.3 0 0 0-8-1.7 42 42 0 0 0-3.6-.2h0a34.7 34.7 0 0 0-11.8 2c-1 .3-1.8.7-2.7 1h0a29.6 29.6 0 0 0-7.2 4.9 32.3 32.3 0 0 0-7 9.3A43.6 43.6 0 0 0 9 337.4L.8 380.6c-.1.7-.2 1.3-.3 2a41.6 41.6 0 0 0-.4 4.6 32.2 32.2 0 0 0 .1 4 22.5 22.5 0 0 0 3.4 10.1 18.5 18.5 0 0 0 5 5.3 20.6 20.6 0 0 0 3.4 1.9h0l1.7.7 22 7.6-1.7.3a10 10 0 0 0-5.7 16.8l14 15-9 17.4a10 10 0 0 0 8.9 14.5 10.3 10.3 0 0 0 1.6-.1c15.5-2.5 31.3-4.6 47-6.4a10 10 0 0 0 8.8-8.6 7.8 7.8 0 0 0 .1-.8 1146.2 1146.2 0 0 1 244.4 0c0 .3 0 .5.1.8a10 10 0 0 0 8.8 8.6l47 6.4a10.4 10.4 0 0 0 1.6.1 10 10 0 0 0 8.9-14.5l-9-17.4 14-15a10 10 0 0 0-5.7-16.8l-3-.5 24-8.4c.4-.1 1-.3 1.3-.5h0a18.8 18.8 0 0 0 8.4-7.1 20.6 20.6 0 0 0 1.8-3.4 23.7 23.7 0 0 0 1.5-6.6l.1-2.4a40.4 40.4 0 0 0-.8-8zM275.8 267.2l-8.3 2.2.3-7a1357 1357 0 0 1 15.7 2.4l-7.7 2.2z" class="K"/><path d="M401.4 470.6q-23.6-3.7-47.4-6.5 8.2-3.3 16.6-6.4-5.5-18.8-11.5-37.5 24.6 2.8 49.2 6.7-9.6 10-19 20.2 6.2 11.7 12 23.5z" fill="#005400"/><path d="M356 273.5a5.3 5.3 0 0 0-2.9-4.1l-.3-.2.1-.4a12.8 12.8 0 0 0-.6-7.1L351 259a22.4 22.4 0 0 1-2.1-4.9 9.8 9.8 0 0 0-2.7-4.2 15.6 15.6 0 0 1-1.9-2.2 18.5 18.5 0 0 1-.9-1.6 11.1 11.1 0 0 0-2.7-3.6l-.2-.2v-.3a19.1 19.1 0 0 0-.4-6.1 20 20 0 0 0-1.2-3.2 14.1 14.1 0 0 1-1.3-3.9l-.1-.6c-.3-2.3-.6-4.5-2.2-6.7a13.5 13.5 0 0 0-4.1-3.5l-1-.7a14.9 14.9 0 0 1-2-1.7 10.9 10.9 0 0 0-3.4-2.4 6.3 6.3 0 0 0-6.1 1.3l-.8.7-.3-.6c-10.4-19.5-28-54.8-28.8-56.2L223 7.6c-.6 0-1.3-.1-2-.1a27 27 0 0 0-21.4 11.9l-.2.3 102 194c-15.6-9.5-59-26.2-67.7-29.5l-.2-.1h-.1a15 15 0 0 0-.4-.7l-.2-.4.4-.3c2-1.4 2-3.2 2-5v-1c0-.8.1-1.8.1-3l.1-2.3c.5-12.7 1-25.4.3-28.3a38.8 38.8 0 0 0-15.8-23 37.2 37.2 0 0 0-10-4.8 34.4 34.4 0 0 0-9.9-1.4 49.2 49.2 0 0 0-28.5 9.8c-5.4 4-8.6 8.8-11 16.5L158 148c-1.5.8-5.4 3.3-12.8 8.5l-2 1.4c-.4.3-.5.4-.8.6l-.7.6.6.4c1 .6 2 1.2 3 2a27.4 27.4 0 0 0 7.8 4c.3.1.5.1.8.2l1 .2v.4c-.2 3-.3 12.8 9.4 15.7h.3v.5a2 2 0 0 1 0 .2v.2l-1.2 2.8h1l.8.1 2.3 8.4-.5.1a50 50 0 0 0-26.1 22.1 40 40 0 0 0-3.2 14.9v.3a60.6 60.6 0 0 1-1.3 9.4l-3 10.5c-1.3 4.5-2.7 9-3.7 13.6l-2 10.2c-2 11.6-4.2 22.6-10.5 33.3l-.4.7H127a10 10 0 0 1 4.6 1.1 9.9 9.9 0 0 1 4.5-1.1h16a10 10 0 0 1 5.1 1.4h0c.2.1.4.3.6.4v.1c.2.1.4.3.6.5l.1.1a10 10 0 0 1 6.5-2.4h11.5a9.1 9.1 0 0 1 1 .1h.4l.7.1c.2 0 .3.1.4.1l.7.2c.2.1.3.1.4.1l.7.3a1.2 1.2 0 0 1 .2.1h.1l.3.2c.2.1.3.2.5.3l.8.6a10.8 10.8 0 0 1 .9.8.3.3 0 0 0 .1.1l.8 1a1.4 1.4 0 0 0 .2.2 27.3 27.3 0 0 1 7.6-3.6h.1a35.9 35.9 0 0 1 6.4-1.2 43.8 43.8 0 0 1 4.7-.3h0a39.2 39.2 0 0 1 11.1 1.5 26.9 26.9 0 0 1 7.9 3.8l.2.1a10 10 0 0 1 2.9 1 11.2 11.2 0 0 1 1.2-.1 10.7 10.7 0 0 1 5 1.2 10.1 10.1 0 0 1 2.8 1.1c0-.2.1-.4.1-.6l.2-.5.5-1.2.4-.7c.1-.2.2-.3.3-.4s0 0 0-.1a8.7 8.7 0 0 1 .6-.8l.2-.2a8.3 8.3 0 0 1 .7-.7l.8-.6a6.2 6.2 0 0 1 .7-.3c.2-.1.3-.2.5-.3a5.9 5.9 0 0 1 .6-.3l1.7-.7 2-.3h14a9.9 9.9 0 0 1 4.7 1.2l18.4-7.3a42 42 0 0 0 4-1.7l3-1.5a21.5 21.5 0 0 0 2.7-1.6l14.2-8.8 4.5-2.2.3.4a3.7 3.7 0 0 0 2.9 1.8h.4a6.4 6.4 0 0 0 5.7-3.4 4 4 0 0 0 .3-1.4v-.5h.5a48.2 48.2 0 0 0 7.9-.8l1.5-.2h.2a17.4 17.4 0 0 0 5.2-1.4 4.7 4.7 0 0 0 .7-.5l1-1-.1 1.2a6.7 6.7 0 0 0 .8 3.9c1.2 2 3.4 3.3 6.3 3.3a11.9 11.9 0 0 0 7-2.3c3-2.4 7-8.7 6.2-13.2zM312 260a32.1 32.1 0 0 1-3.5 5.1l-.3.3-.4-.2a3.2 3.2 0 0 0-2.7-.1 4.9 4.9 0 0 0-3.4 2.7 4 4 0 0 0-.3 1v.4l-10.7 1.8a41.1 41.1 0 0 0-4.2.9l-16 4.5a44.5 44.5 0 0 1-5.2.9c-2 .2-3.8.3-5.8.3h-.7v-.6a96.8 96.8 0 0 0 1.1-12.5l1-10.6c15.6 2 39 6 39.2 6l1 .2.3-1a20.4 20.4 0 0 0 .5-2.6v-.5h.5a20.5 20.5 0 0 1 9.3 3.1l.4.3z" fill="#fff"/><path d="M285 241l-2.6 2.4a78.2 78.2 0 0 1-13.9 9.1 657 657 0 0 1 30.8 5 156 156 0 0 0 .8-26.8 11.1 11.1 0 0 1-6.7-3.8 46.4 46.4 0 0 0-6.1-5.3 110 110 0 0 1-1.6-1.3l2.2 2.4-11-8.3a29.8 29.8 0 0 0-5.7-3 199 199 0 0 0-3.4-1l-7.5-1.6-4-.6c-2.6-.3-5.4-.2-8-1.2-.5 0-1-.1-1.5-.2-.7-1.3-1.4-2.7-2-4a112.8 112.8 0 0 1-4.5-13.1l-4.5-1.8 1.4 3.5a56.8 56.8 0 0 1 2.2 8l1.2 6.3q.4 2.2.8 4.3l1.4 8.4a66 66 0 0 1 .7 5.9l.8 8.4c0-.1-.2-.5-.3-1.2a36.2 36.2 0 0 1-.9-3.6l-8.2-33a72 72 0 0 0-1.8-4.6c-1.8 2.3-4.2 4.2-5.6 6.7.3 1.5.7 3 1 4.4l1.5 6.6a52 52 0 0 1 .4 18c-.3 3-.6 6.2-.6 9.2v11.3l-6.3-11.6c-1.3-2.4-2.6-5-5-5.4a10.5 10.5 0 0 0-2.4 0 12.1 12.1 0 0 1-2.8 0 20.9 20.9 0 0 1-5-1.6c-3-1.3-5.4-3.7-7.6-6l-11-12.5-1.6.8a27.5 27.5 0 0 1-6.6.8 18.3 18.3 0 0 1-6.1-.9l-.4-.1-5.7-10-8 6.4c-3 2.4-6.3 3.8-9 6.3a4.8 4.8 0 0 1 .6-.3 16.4 16.4 0 0 1 7.5-1.3 26.3 26.3 0 0 1 11 3.4 49 49 0 0 1 9.5 6.7l3.2 3c4.5 4.4 7.5 9.8 11 14.7a19.4 19.4 0 0 1 4.3 4.4l5.8 5.2a115.8 115.8 0 0 1 12.2 13l8 8.8-.7.3a31 31 0 0 0 1.4 1.9l1.4 1.8a.3.3 0 0 0 .1.1l.8-14 .5 7.8a106 106 0 0 1 .1 7.7h0a10.7 10.7 0 0 0 3.5 1l4.2.3c2.8.3 6 0 9 .1l11 .2 1-6.8 2.6-35c0-6-.4-12 .5-17.8l-.1 1a31.1 31.1 0 0 0-.1 3.2c0 2.8.4 7 .8 12a67.4 67.4 0 0 1 .2 8.8l-.2 5a136.6 136.6 0 0 0 11.3-23.1c0 .2-.2 1-.6 2.3a61.1 61.1 0 0 1-1.9 6.5 78.4 78.4 0 0 1-8.8 17.7l-.1 1.6v-1.3c.3.1.7.1 1 .1l8.6-9a98 98 0 0 0 9.2-12.8c-.1.3-.4 1-1 2l-1 2.5c-.5 1-1.2 2-2 3.2a72.8 72.8 0 0 1-11.6 14.3c.3 0 .5.1.7.1l10.7-6 12-9c-.1.1-.6.8-1.4 1.7a21.9 21.9 0 0 1-1.7 2zM215 19.5l9.4 18.5c8.2 13.6 14.6 28 21.4 42.2l38.8 81.4a348.3 348.3 0 0 0 18.6 35.6l7.6 14.8a3.4 3.4 0 0 1 3.5 1.6 8.1 8.1 0 0 1 1.1 2.9 31 31 0 0 0 .8-.8 3582 3582 0 0 1-29-56.8l-65-150a23 23 0 0 0-14.9 4.7c3 .3 5.5 1.6 7.7 5.7zm-63.4 193.7a28.1 28.1 0 0 0-5.7 8.6l1.6-1a42.8 42.8 0 0 1 4.9-2.8 29.6 29.6 0 0 1 11-3.2 20.6 20.6 0 0 1 4.4.2 25.6 25.6 0 0 0-8.4-2.6 16.8 16.8 0 0 0-7.7 1zm7-46.2l-2.6-.4c-.2 3-.1 10.6 7.3 13.5l-.5-3c-3.8-2.5-4.2-8-4.3-10z" class="L"/><path d="M223.5 190h0a.1.1 0 0 0 0-.1z" class="M"/><g class="L"><path d="M141 285.5l9-4.5c.5-.2 1-.6 1.3-1l3.2-2.3a67.3 67.3 0 0 1-9.7-13l-1-1.7c-1.8 4.8-4.7 9-7 13.5 3.5.3 6.5-1.8 10-1.4.3 4-5.7 6.4-6 10.3zm167.8 1.5l-1.5-4a11.1 11.1 0 0 0-.7-1.1 6.2 6.2 0 0 1-.4-.7 9.3 9.3 0 0 1-1.1.7c-4.2 2.3-7.7 5.4-11.6 8.2a51.7 51.7 0 0 1-8.6 4.6c-5 2.3-10.4 4-15.4 6.4a46.5 46.5 0 0 1-12.3 3.8 89.3 89.3 0 0 1-11.8 1.7c-3.8.2-7.4-.7-11-1.5-8.7-1.8-16-10-22.6-15.5-1.3-1-2.5-2.2-3.8-3.3a41.8 41.8 0 0 1 4.8-4.6l8.4-6.8a41.4 41.4 0 0 0 3.5-3.4 5.5 5.5 0 0 1-2.9-2.1h-.4a169.8 169.8 0 0 0-17.1 6.9 85.7 85.7 0 0 0-11 1.7 21 21 0 0 1-10.4.2c-5-1.6-9-6-13.6-8l9.2.1c2.4 0 5-.4 7.4-.6l-2.7-.7a42.5 42.5 0 0 1-8.7-3 91.5 91.5 0 0 1-8.1-4.5 19.3 19.3 0 0 1-1.6-1.2 111 111 0 0 0 11 2.4c4.7 1 10 .3 15 .5l-8-3c-2.7-1-5.4-1.5-8-2.6s-4.7-2.7-7-4.2c-3-2-6.4-3.3-8.5-6.2a17.4 17.4 0 0 1-1.7-3l-.4-.3c-2.8-2-4.7-4.8-7.6-6.4l1 .4a19.7 19.7 0 0 1 2.9 1.8l3 2-3.7-11.4a33.3 33.3 0 0 1 3.7-4.1 63.7 63.7 0 0 1 8.4-7.3 12.5 12.5 0 0 1 3.2-1.5 19.7 19.7 0 0 0-5.1-.2 26.9 26.9 0 0 0-7.6 2.2 37 37 0 0 0-4.1 2.2h0l-4.2 2.7c-.1.3-.3.5-.4.8a33.8 33.8 0 0 0-3.5 9.8c-1.2 7.7 2 15.8 6 22.6a122.9 122.9 0 0 0 13.8 19.7 44.8 44.8 0 0 0 8.3 6.8c2.2 1.6 4.6 4.3 7 5.4a5.5 5.5 0 0 0 2.6.4l1.8-1.5 4-2.6a6.9 6.9 0 0 1 .6 2.5 5.6 5.6 0 0 1 4.6 3.9l-4.6-3.7a49 49 0 0 0-3.4 2.5l-7.6 7-19.7-18a2.9 2.9 0 0 1-.3-.4 17.9 17.9 0 0 1-2.5 1.6l-2.7 1.5c-.7.3-1.4.6-2 .8-.7 3.2-6 8-8 9.7-3.5 3-7.6 5.4-11.2 8.2l8-1.4a108.5 108.5 0 0 0 11.6-2.3 32.2 32.2 0 0 0 10.8-5.4l-2.3 2.3c-.5.5-1.2 1-2 1.6a17.1 17.1 0 0 1-2.6 1.7 23.5 23.5 0 0 1-3.3 1.6 46.9 46.9 0 0 1-5.9 2l1.3-.2a110.8 110.8 0 0 0 17.3-3.8 32.6 32.6 0 0 1-10.2 11.8 10.1 10.1 0 0 1 4.5 1.3h0c.2.1.4.3.6.4h.1c.2.1.4.3.6.5l.1.1a10 10 0 0 1 6.5-2.4h11.5a9.1 9.1 0 0 1 1 .1l1 .2c.2 0 .3.1.4.1l.7.2c.2.1.3.1.4.2l.7.3a1.2 1.2 0 0 1 .2.1h.1l.3.2c.2.1.3.2.5.3l.8.6a10.8 10.8 0 0 1 .9.8.3.3 0 0 0 .1.1l.8 1a1.4 1.4 0 0 0 .2.2 27.3 27.3 0 0 1 7.6-3.6h.1a35.9 35.9 0 0 1 6.4-1.2 43.8 43.8 0 0 1 4.7-.3h0a39.2 39.2 0 0 1 11.1 1.5l2 .7a9.9 9.9 0 0 1 7.2 3.3l.4.2a8 8 0 0 1 2.4 1.6 9.9 9.9 0 0 1 3 1.2 11.9 11.9 0 0 1 1.7-.1 11.7 11.7 0 0 1 3.2.4c0-.2.1-.4.2-.6l.7-1.7.4-.7c.1-.2.2-.3.3-.4s0 0 0-.1a8.7 8.7 0 0 1 .6-.8l.2-.2a8.3 8.3 0 0 1 .7-.7l.8-.6a6.2 6.2 0 0 1 .7-.4c.2-.1.3-.2.5-.3a5.9 5.9 0 0 1 .6-.3l1.7-.7 2-.3h14a9.9 9.9 0 0 1 4.7 1.2l18.4-7.3a42 42 0 0 0 4-1.7l3-1.5a21.5 21.5 0 0 0 2.7-1.6l14.2-8.8 4.2-2c-.1-.3-.1-.4-.2-.6z"/><path d="M197 280.2l-.4.2zm-4 2.2l-.6.4zm-6 3.8l2-1.2-2 1.2zm8 8.8l-2.8-2.2z"/></g><path d="M212.7 176.7a3.9 3.9 0 0 0-1.6.3 4.9 4.9 0 0 0-2.9 4.1 3.6 3.6 0 0 0 2.1 3.4 6.7 6.7 0 0 0 3 .7 4.8 4.8 0 0 0 3-.9 3.4 3.4 0 0 0 1.2-4 5.3 5.3 0 0 0-4.8-3.6z" fill="#fff"/><path d="M176 167.4a58.1 58.1 0 0 0-6.9-1.2l-3.8-.2a9.3 9.3 0 0 0-3.4.1l1 6.3c2.2-1 5.3-.8 7.7-.6a58.1 58.1 0 0 1 8.1 1.4c2.5.6 5 1.4 7.6 2.2 1 .4 2.3.8 3.4 1.3 1 .4 2 .5 2.8 1 1.6-2.3 5-3.8 5.7-6.6-.6-.5-2-.1-2.7-.2-1.3-.1-2.6-.4-4-.6l-7.8-1.2c-2.6-.4-5-1.4-7.7-2zm27.6 39l4.3-4.3a11.9 11.9 0 0 1 2-2.1 7.9 7.9 0 0 1 2.9-.6 16.9 16.9 0 0 0 11.8-6l-1.2-3.4c0 .2-.5.3-.8.6-3 2.7-8 4.7-12 5.3-1 .2-2-.1-3 .4-.7.4-1.2 1.3-1.8 1.7l-6.5 4.4-6.2 3.8c-.5.3-2.6 1.4-2.6 2 0 .4 1.8 1.8 2 2.2 1.8 2.2 4 4.2 5.8 6.4s4 5.4 6.5 7a33 33 0 0 1-2.5-9.2c-.3-1.6-1.3-4.2-.8-5.8.3-1 1.4-1.7 2-2.4z" class="L"/><g class="M"><path d="M314.3 220.5a20.9 20.9 0 0 0-4 5.4c-.3.6-.6 1-1 1.7-.8 1.4-1.4 2.3-1 3.7a4.6 4.6 0 0 0 .2.9l2.2-2.5a62.4 62.4 0 0 1 5.3-5.2c2-1.7 4.8-3.5 7.8-3.6a13.5 13.5 0 0 0-1.7.9 27.8 27.8 0 0 0-3.9 3.3 79.1 79.1 0 0 1-9.2 8.2 19.7 19.7 0 0 0 2.2 3.7l2-2a73.1 73.1 0 0 1 6.2-5.3 30 30 0 0 1 2.1-1.2c.7-.4 1.4-.6 2-1a36 36 0 0 1 4.3-1.8l-3.6 3-2.6 2a113.9 113.9 0 0 1-9.6 7.5l3 4 2-1.5a46 46 0 0 1 6.4-4 34.3 34.3 0 0 1 3.9-1.5 10.5 10.5 0 0 1 4.3-.9l-.5.2a6.7 6.7 0 0 0-1.3.7l-4.5 2.7c-2 1-4 2.5-6.3 3.8l-3 1.8a33.8 33.8 0 0 0 2.7 3.3l1-1a12.9 12.9 0 0 1 5-3.2 23.7 23.7 0 0 1 8.2-1.2c.6 0 1.3-.1 2-.1a15.6 15.6 0 0 1 4.3 0 17.1 17.1 0 0 0-.5-4.9 16.8 16.8 0 0 0-1.1-3 16 16 0 0 1-1.5-4.4l-.1-.6c-.3-2.3-.5-4-2-6a11.8 11.8 0 0 0-3.7-3.1l-1-.7a19.1 19.1 0 0 1-2.2-1.8 9 9 0 0 0-2.9-2.1 4.6 4.6 0 0 0-4.6 1 69.1 69.1 0 0 0-5.2 4.8zm20.5 22.5c-.8.1-1.6.1-2.2.2a24.1 24.1 0 0 0-2.9.1 15.2 15.2 0 0 1 2.9 3.3l.2.3a146.2 146.2 0 0 1 10.2 16.9 7.5 7.5 0 0 1 .9 5.4 10.5 10.5 0 0 1 7.5-1.2 11.1 11.1 0 0 0-.5-5.8l-1.4-2.6a22.9 22.9 0 0 1-2.2-5.2 8.3 8.3 0 0 0-2.4-3.6 16.1 16.1 0 0 1-2-2.4 17.7 17.7 0 0 1-1-1.7 9.2 9.2 0 0 0-2.5-3.3c-1-.6-3-.4-4.6-.3zm-26.4-18a23 23 0 0 1 4.4-6l.7-.7a8.3 8.3 0 0 0-1-3.5 1.3 1.3 0 0 0-1.5-.7c-1.6.4-3 3-3.8 4.5l-.8 1.4a44.3 44.3 0 0 0-2.9 5.8 12 12 0 0 0-.4 1.1l.3 8.3a31.2 31.2 0 0 0 1.4 3.7 41.6 41.6 0 0 0 10 13.9 28.8 28.8 0 0 1 2.5-4.4 35 35 0 0 1-3.7-4.7l-2.3-3.2c-2-2.7-4.2-5.5-5-8.7-.4-2.2.5-3.7 1.3-5.2a13.8 13.8 0 0 0 .8-1.5zm-6 29.7a4.9 4.9 0 0 1 1.9.3 38 38 0 0 1 8.4 4.1 6.3 6.3 0 0 1 1.3-1l1-2.2a5.6 5.6 0 0 1 .3-1.1 5.4 5.4 0 0 1-.5-.5c-.7-1-1.7-1.5-2.5-2.3a5.5 5.5 0 0 1-1.2-1.7l-8.4-2a44.8 44.8 0 0 1-.2 5.4c0 .4 0 .7-.1 1z"/><path d="M341 270.4c1.2-1.6 1.3-3.3.1-5.5a138.6 138.6 0 0 0-10.1-16.7l-.2-.2c-1.3-1.8-2.6-3.7-4.7-3.7s-4 1.7-5.3 3c-2.8 2.6-4.4 6.5-6 10.3l-.8 1.8a30.6 30.6 0 0 1-4.6 7.1 15.3 15.3 0 0 1 1 1.9l.1.3c1.3 2.7 3 5.3 4.6 8l1.5 2.3a17.3 17.3 0 0 1 2.2 4 51.6 51.6 0 0 0 7.9-.7l1.5-.3a16.1 16.1 0 0 0 4.9-1.3c1.7-1 2.6-2.5 3.7-4.4l.2-.4a28.8 28.8 0 0 1 2.7-3.7l1.2-1.4zm-35.3 7l4.6 8c.7 1.6 1.2 2.5 2.5 2.6a4.7 4.7 0 0 0 4.5-2.5c.8-1.5-.8-4-2-5.6a22 22 0 0 1-.6-.9l-1-1.4a93.1 93.1 0 0 1-4.7-8.1v-.3c-1-1.8-1.4-2.5-2.3-2.5a2.8 2.8 0 0 0-.8.1 3.4 3.4 0 0 0-2.4 1.8c-1 2.3 1 6 2.3 8.6zm41 .6a10.5 10.5 0 0 1-6 2 6.7 6.7 0 0 1-2.8-.6 6.1 6.1 0 0 0 .1 5.2 5.2 5.2 0 0 0 4.9 2.5 10.5 10.5 0 0 0 6-2c2.6-2 6-7.8 5.6-11.6a3.9 3.9 0 0 0-2.7-3.3h0a17.9 17.9 0 0 1-5.1 7.7zM171 143a99.5 99.5 0 0 0 5.5-8.7c2-3 3.5-6.2 6.3-8.6 4.3-3.8 9.6-5.8 15.2-7a37.3 37.3 0 0 1 14.5-.5 30 30 0 0 0-3.1-1.1 44 44 0 0 0-37 8.2c-6 4.4-8.4 9.4-10.3 15.7l-2 6.7 4.8 3.7c1.6-3 4-5.6 6.2-8.3zm-17.6 21a55.6 55.6 0 0 0 11.6 1.8c-4.4-1-9.4-3.2-11.2-6.3l7.6-8-3.2-2-13.8 9.3 1.7 1a25.1 25.1 0 0 0 7.3 3.8zm78.6 17.4c1.4-.8 1.5-1.8 1.5-4v-1c0-1.3.1-3 .2-5.2l.6-16c-.8-5.7-1-11.5-4-16.6a27.7 27.7 0 0 0-7.8-9 26.8 26.8 0 0 0-10.4 1.2 25 25 0 0 0-15.2 17c-1.6 6.3-3 13.2-10.5 13.3a46.7 46.7 0 0 0 10.7 3.4c4 1 7 2.4 11.3 2.6l-5.7 1.7a13.5 13.5 0 0 0-3 1.6h0l-.5 1a20 20 0 0 1-2.8 3.3 15.3 15.3 0 0 0-2.9 3.6c-1 2.2.3 6.5 2 8.7a20.8 20.8 0 0 0 7.2 6 16 16 0 0 0 15-.3 40.9 40.9 0 0 0 7.4-5.9 46.1 46.1 0 0 1 7.1-5.8zm-15 3.6a6 6 0 0 1-3.6 1.1 7.7 7.7 0 0 1-3.5-.8 4.6 4.6 0 0 1-2.7-4.3 5.8 5.8 0 0 1 3.5-5 5.1 5.1 0 0 1 2-.4 6.4 6.4 0 0 1 5.7 4.3 4.5 4.5 0 0 1-1.5 5.2z"/></g><path d="M249.5 206.8h.5zM317 247c-2-3.7-5-7-7-10.7a14.9 14.9 0 0 1-2.1-5.9 13.7 13.7 0 0 1 1.4-6.4c.6-1.7 1.7-5-1-5.4-2.2-.3-4 2.4-4.8 4l-1.7 3.8a20.6 20.6 0 0 0-.1 8.9 24.9 24.9 0 0 0 2.5 5.3 46.7 46.7 0 0 0 5.9 8.9 18.4 18.4 0 0 0 2.2 2.5c1 1 1.8 1.6 3 .7 1.7-1.4 3-3.6 2-5.7z" fill="#fff"/><path d="M195 254a27.2 27.2 0 0 0 3.3.9l1.2.3c-3.2-1.2-6-3-9.3-4l-9.4-2.2a78 78 0 0 0-8.9-1.8l-8-1.2a44.6 44.6 0 0 1-5.9-3c-1.7-1-3-2-4.3-3a18.4 18.4 0 0 0-3-1.8l-1-.4c3 1.6 4.8 4.4 7.6 6.4l4 2.7a14.6 14.6 0 0 0 4.8 1.7l17 3c2.5.5 5 .6 6.8 1a35.9 35.9 0 0 1 5.1 1.4zm65.3-45.5l11 2.6a31 31 0 0 1 5.7 3l8 6 3 2.4c-3.7-4-7.4-8.4-12-11.2l-1.7-1-1.8-.8c-1.2-.5-2.4-.8-3.6-1.2a56.6 56.6 0 0 0-6.7-1.2 47.3 47.3 0 0 0-5.7-.4l-4.4.2a18.7 18.7 0 0 1-2.8-.1l-1-.1c2.6 1 5.5 1 8 1.2 1.3.2 2.7.4 4 .6zm-52-40.5a36.1 36.1 0 0 0 3.7.2h3.2a174.8 174.8 0 0 1-24.4-6.3l-11-3.6a78.6 78.6 0 0 0 23.7 8.9zm2.4 8a5.8 5.8 0 0 0-3.6 5 4.7 4.7 0 0 0 2.7 4.3 7.8 7.8 0 0 0 3.5.8 5.9 5.9 0 0 0 3.6-1.1 4.4 4.4 0 0 0 1.5-5.2 6.4 6.4 0 0 0-5.7-4.3 5 5 0 0 0-2 .4zm6.8 4.2a3.4 3.4 0 0 1-1.2 4 4.9 4.9 0 0 1-3 .9 6.7 6.7 0 0 1-3-.7 3.6 3.6 0 0 1-2.1-3.3 4.8 4.8 0 0 1 2.9-4.1 3.8 3.8 0 0 1 1.6-.3 5.3 5.3 0 0 1 4.8 3.6z" class="K"/><path d="M320.6 260.3c2.3-3.5 6-10.7 10.5-12v-.2c-1.3-1.8-2.6-3.7-4.7-3.7s-4 1.7-5.3 3c-2.8 2.7-4.4 6.5-6 10.3-.2.6-.5 1.2-.8 1.8a30.6 30.6 0 0 1-4.6 7.1 15.3 15.3 0 0 1 1 1.9l.1.3 1 2a19.9 19.9 0 0 0 3.7-2.8c2.2-2 3.4-5 5-7.5zm-7.4-40.3c-.3 2.2 2.8 4 4.6 4.2.1 2.3-.5 6.3 3 6.5-.2 2.8 1 4.4 3 6.3a8.4 8.4 0 0 1 2.1 2.5 14.5 14.5 0 0 0 2.1 3 10.2 10.2 0 0 0-4.9 2.4c-1 .8-2.2 3-3.4 3.4-2.4.8-5.6-4.5-6.8-6.4-.8-1.3-1.4-2.8-2-4s-2-2.8-2.7-4.4c-1.4-3.5.8-5.7 2.8-8.5a10.2 10.2 0 0 1 1.6-1.9" fill="#fff"/><path d="M117.6 309.4h2l1-1.8 1-.6a10.5 10.5 0 0 1 2.4-1c.8-.2 1.8-.4 2.7-.6l15.4-3.2a52 52 0 0 0 8.4-2.5 24.6 24.6 0 0 0 3.3-1.6 18.3 18.3 0 0 0 2.6-1.7l4.3-4a31.5 31.5 0 0 1-10.9 5.5 109.5 109.5 0 0 1-11.6 2.3l-11.2 2a41.1 41.1 0 0 0-4.1 1 117 117 0 0 0 7.4-27.5l2-10a202 202 0 0 1 3.7-13.7l1.8-6.3a64.9 64.9 0 0 0 7 19 66.7 66.7 0 0 0 9.7 13l-.4.4-4 2.8-1.3.7c-1.7 1-3.4 1.7-5 2.4l-3.8 2-3 2c3.7-1.8 7.5-2.6 11.3-4l5.5-2.6a16 16 0 0 0 2.5-1.6l13.6 12.7 6.6 5.7 4.7-4.4 3-2.6c1-1 2.2-1.7 3.4-2.5q6.7 5.4 13.4 10.6c5 3.8 10 7.6 15 11a26.6 26.6 0 0 1 6.8 3.4l1.7 1.3.8.7c.1.1.2.1.2.2l.2.2a14.1 14.1 0 0 0 2.9.9l2.3.5c.8.1 1.5.1 2.3.2.6.1 1 .1 1.7.1v-.1a1.9 1.9 0 0 1 0-.2h0c0-.1.1-.2.1-.2a6.4 6.4 0 0 1 .2-.7c0-.2.1-.4.1-.5s.2-.5.3-.7l.2-.5c.1-.1.1-.3.2-.4h0c-1.4 0-2.8-.2-4.3-.3l-4-1a45.2 45.2 0 0 1-7.3-4.1c-9.5-6.4-18.2-13-26.3-19.2l-3.6-2.8 32-15.5.8 1.3a18.6 18.6 0 0 1 2.6 3.7c.7 1 1 2 1.7 2.6a12.6 12.6 0 0 0 2.3 1.9 30.5 30.5 0 0 0 3.7 1.8l1.4.6c-1-1.3-2.3-2.5-3.4-3.7a9.1 9.1 0 0 1-1.1-1.3 13.8 13.8 0 0 0 1.6.4 85.5 85.5 0 0 0 11.3.8l21.2.1a44.5 44.5 0 0 0 9.8-2l8.8-2.8a112.4 112.4 0 0 1 15.4-3.9l2.8-.6c.2 2.6 1.7 5.5 2.8 7.6l4.8 8.8-1 .5a82.4 82.4 0 0 0-9.2 4.4l-8.6 5c-5.6 3.2-12 5-18 7.5l-13.5 5a11.5 11.5 0 0 1 5.1 1.5l25-10.5a24 24 0 0 0 2.8-1.6l14.2-8.8 4-2a4.1 4.1 0 0 0 3.3 2 2.5 2.5 0 0 0 .5 0 6.8 6.8 0 0 0 6-3.6 4.2 4.2 0 0 0 .4-1.6 51.1 51.1 0 0 0 8-.8l1.5-.3a17.8 17.8 0 0 0 5.6-1.6 6.6 6.6 0 0 0 .9-.6 7.3 7.3 0 0 0 .8 4.2c1.3 2.3 3.7 3.6 6.7 3.6h0a12.5 12.5 0 0 0 7.3-2.4c3-2.4 7-8.8 6.4-13.5a5.9 5.9 0 0 0-3.1-4.5 13.4 13.4 0 0 0-.6-7.5l-1.4-2.8a21.2 21.2 0 0 1-2.1-4.8 10.2 10.2 0 0 0-2.9-4.5 15.7 15.7 0 0 1-1.7-2.1l-1-1.6a11.5 11.5 0 0 0-2.9-3.8 19.4 19.4 0 0 0-.5-6.2 19.7 19.7 0 0 0-1.3-3.3 13.2 13.2 0 0 1-1.3-3.8l-.1-.6c-.3-2.4-.6-4.7-2.2-7a13.8 13.8 0 0 0-4.3-3.6l-1-.7a14.2 14.2 0 0 1-1.9-1.6 11.4 11.4 0 0 0-3.6-2.5 6.7 6.7 0 0 0-6.6 1.3l-.4.3c-10.4-19.7-28.6-56-28.7-56.2L223 7c-15.4-1.2-23.5 11.5-23.8 12l-.3.5 107.8 195.6c-.5.8-1 1.6-1.3 2.2l-2.5 4.5-.5-8.4-.7-.4C286.5 204 245 188 234 183.6l-.4-.7c2-1.5 2-3.4 2-5.3v-.8c0-1.3.1-3 .2-5.2.5-12.7 1-25.4.3-28.5a39.3 39.3 0 0 0-16.1-23.3 37.8 37.8 0 0 0-10.2-4.9 46 46 0 0 0-38.9 8.5c-5.5 4-8.7 9-11 16.7l-2.2 7.5c-1.5.8-5 3.2-13 8.5l-2 1.4c-.3.2-.6.4-1 .7l-1.2 1 1.3.8c1 .6 2 1.3 3 2a27.6 27.6 0 0 0 7.9 4.1c.4.1.8.2 1.3.3-.3 3-.3 13.3 9.8 16.3 0 .2.1.3.1.4l-1.4 3.2c-.1.1.1.1.2.1h.3l1.6.1a85 85 0 0 0 1.4 5.6h-.1.1l.6 1.8c-10.3 2.7-22 14-26.4 22.3-2.3 4.6-2.8 10-3.3 15.2a60.8 60.8 0 0 1-1.3 9.4l-3 10.3c-1.4 4.6-2.8 9.3-3.8 14l-2 10.2c-2 11.6-4.2 22.5-10.5 33l-.6 1zm199.4-24a4.7 4.7 0 0 1-4.5 2.5c-1.3-.1-1.8-1-2.5-2.6l-.6-1.2a60 60 0 0 0-1.9-3.4l-2-3.6c-1.3-2.5-3.3-6.3-2.3-8.6a3.4 3.4 0 0 1 2.4-1.8 2.9 2.9 0 0 1 .8-.1c1 0 1.4.8 2.3 2.6l.1.3c1.4 2.8 3 5.5 4.7 8l1.5 2.4c1 1.7 2.7 4 2 5.6zm20-9.5c-1 2-2 3.5-3.7 4.4a16.3 16.3 0 0 1-4.9 1.3l-1.5.3a49.4 49.4 0 0 1-7.9.7 17.2 17.2 0 0 0-2.2-4l-.6-1-5.7-9.6a14.6 14.6 0 0 0-1-1.9 31 31 0 0 0 4.6-7.1l.8-1.8c1.6-3.7 3.2-7.6 6-10.3 1.3-1.2 3.3-3 5.3-3s3.4 2 4.7 3.7v.3a143.3 143.3 0 0 1 10.1 16.6c1.2 2.3 1.2 4-.1 5.5l-1 1.4a29.2 29.2 0 0 0-2.7 3.7zm17.4-2.2c.5 3.8-3 9.5-5.6 11.6a10.5 10.5 0 0 1-6 2h0a5.2 5.2 0 0 1-4.9-2.5c-2-4 1.6-8.7 4-11.2a10.3 10.3 0 0 1 7.3-3.5 7 7 0 0 1 2.6.5 3.9 3.9 0 0 1 2.7 3.2zm-15-30.2a8.8 8.8 0 0 1 2.5 3.3c.3.6.7 1.2 1 1.7a17.3 17.3 0 0 0 2 2.4 8.3 8.3 0 0 1 2.4 3.6 22.7 22.7 0 0 0 2.3 5.2l1.3 2.6a11.1 11.1 0 0 1 .5 5.8 10.5 10.5 0 0 0-7.5 1.2 7.4 7.4 0 0 0-.9-5.4 145.2 145.2 0 0 0-10.2-16.9l-.2-.3a15.5 15.5 0 0 0-2.9-3.3 26.1 26.1 0 0 1 2.9-.1c.6 0 1.4-.1 2.2-.1 1.6-.2 3.6-.4 4.6.3zm-20-27.8a4.7 4.7 0 0 1 4.5-1 9.7 9.7 0 0 1 2.9 2.1 16 16 0 0 0 2.2 1.8l1 .7a11.6 11.6 0 0 1 3.7 3c1.3 2 1.6 3.7 2 6l.1.6a15 15 0 0 0 1.5 4.4 17.8 17.8 0 0 1 1.1 3 17 17 0 0 1 .5 4.9 15.7 15.7 0 0 0-4.3 0c-.7.1-1.4.1-2 .1a24.8 24.8 0 0 0-8.2 1.2 13 13 0 0 0-5 3.2l-1 1a31.4 31.4 0 0 1-2.7-3.3l3-1.8c2.4-1.3 4.4-2.8 6.3-3.8l4.5-2.7a6.3 6.3 0 0 1 1.3-.6l.5-.2a10.2 10.2 0 0 0-4.3.9 37.3 37.3 0 0 0-3.9 1.5 47.8 47.8 0 0 0-6.4 4c-.7.5-1.3 1-1.8 1.5l-3-4a116.5 116.5 0 0 0 9.5-7.5c.8-.7 1.8-1.2 2.6-2l3.6-3a45.2 45.2 0 0 0-4.3 1.8l-2 1c-.7.4-1.4.8-2 1.2a76.7 76.7 0 0 0-6.2 5.3l-2 2a20.7 20.7 0 0 1-2.2-3.7 82.9 82.9 0 0 0 9.2-8.2 26.9 26.9 0 0 1 3.9-3.2 12 12 0 0 1 1.7-.9c-3 .1-5.7 2-7.8 3.6a61.1 61.1 0 0 0-5.3 5.2l-2.2 2.5a7.6 7.6 0 0 1-.2-.9c-.3-1.4.3-2.4 1-3.7.3-.5.6-1 1-1.7a21 21 0 0 1 4-5.4 67.1 67.1 0 0 1 5.3-4.8zM281 161L201.3 19.7c1.6-2.2 9-11.2 21-10.6l65 150 28.2 57.6a8.4 8.4 0 0 0-1.1-2.9 3.4 3.4 0 0 0-3.7-1.6 5.1 5.1 0 0 0-2.4 1.5zm22.3 64.7a47 47 0 0 1 2.9-5.8l.8-1.4c.8-1.4 2.3-4 3.8-4.5a1.3 1.3 0 0 1 1.5.7 7.9 7.9 0 0 1 1 3.5l-.7.7a23.2 23.2 0 0 0-4.4 6c-.2.5-.5 1-.8 1.5-1 1.5-1.8 3-1.3 5.2.6 3.2 2.8 6 5 8.8l2.3 3.2a32.6 32.6 0 0 0 3.7 4.7 28.9 28.9 0 0 0-2.5 4.4 41.5 41.5 0 0 1-10-13.9 28.9 28.9 0 0 1-1.4-3.7l.2-9.4zm-.1 15a42.9 42.9 0 0 0 10.4 13.9l-1 2.3a23.5 23.5 0 0 0-10-3.3l.5-12.8zm-1.3 18.7a26.1 26.1 0 0 0 .5-2.6 20.2 20.2 0 0 1 9 3 33.1 33.1 0 0 1-3.4 5 3.4 3.4 0 0 0-1.6-.4 5.3 5.3 0 0 0-1.4.2 5.5 5.5 0 0 0-3.7 3 4.9 4.9 0 0 0-.3 1.1l-9 1.4c-2 .4-3.8.7-5.6 1.2l-16 4.5a41.8 41.8 0 0 1-5.1.9 67 67 0 0 1-5.8.3 93.3 93.3 0 0 0 1.1-12.5l.3-10c15.7 2 39 6 39.2 6l1.4.2zm-146-92.8l2.6.4c0 2.2.5 7.6 4.3 10l.5 3c-7.4-3-7.6-10.6-7.3-13.5zm-2.7-2.8a25.7 25.7 0 0 1-7.3-3.8l-1.7-1.2 14-9.3c1.4 1 2.7 1.7 4 2.3a39.6 39.6 0 0 0 6.6 2.7 57 57 0 0 0 2.5.6 65 65 0 0 1-11.4-7.8l2-6.7c2-6.2 4.4-11.2 10.4-15.7a44 44 0 0 1 37-8.2 35.6 35.6 0 0 1 9.6 4.6 37.3 37.3 0 0 1 15.2 22c.7 3 0 19.2-.3 28l-.2 6c0 2-.1 3-1.5 4a46.9 46.9 0 0 0-7 5.7 39.6 39.6 0 0 1-7.4 5.9 16 16 0 0 1-15 .3 20.5 20.5 0 0 1-7.2-6c-1.5-2-3-6.5-2-8.7a15.7 15.7 0 0 1 2.9-3.6 20.6 20.6 0 0 0 2.8-3.3l.5-1-1-.6a3.9 3.9 0 0 0-2-.5c-4.6-.4-9.2-1-13.7-2l-12.7-1.8c-1.4-.1-2.8-.2-4.2-.3a63.5 63.5 0 0 1-13-1.8zm67.7 44a24.5 24.5 0 0 0-1.7 4.9 17.2 17.2 0 0 1-2.1 5.4c-1.5 2.2-3.8 3.2-6.3 4.2l-1.2.5a9.7 9.7 0 0 1-2.8.8 33.7 33.7 0 0 1-4-3.8l-10.5-12a84 84 0 0 0 16-10.9c.4 0 .8.1 1.3.1a18 18 0 0 0 8.8-2.3 29.1 29.1 0 0 0 4.4-3.2l.5 1.7c.1.6.3 1.3.5 2l1.4 6a35.6 35.6 0 0 0-4.3 6.6zm4.8-3.8c.3 1.6.7 3.2 1 4.7 1.4 5.4 1 11 .3 17-.2 2.7-.5 5.6-.6 8.3l-.2-.5c-1.5-2.8-3.3-6.3-7.2-7a12 12 0 0 0-3.2 0 11.1 11.1 0 0 1-2.1 0 17.2 17.2 0 0 1-4.2-1.4h0l1-.4 1-.5c2.6-1 5.4-2.3 7.2-5a18.9 18.9 0 0 0 2.4-6 23.2 23.2 0 0 1 1.5-4.5 35.8 35.8 0 0 1 2.9-4.8zm-62-36.4l5.8.5-4.4 11.3-1.4-11.8zm1 17.3c-.2 0-.3 0-.2-.1v-.1a2.1 2.1 0 0 0 .2-.3l1.2-2.4a126.4 126.4 0 0 0 5.6-13.7l4 .5a19.3 19.3 0 0 0 4.5 6.6 13.9 13.9 0 0 0 2 1.6l.8.5a51.1 51.1 0 0 1-5.3-8.5l5 .8c4.4.7 9 1.5 13.6 2l-1.6 1.7a17.6 17.6 0 0 0-3.3 4.1c-1.6 3.2.3 8.4 2 10.8a22.7 22.7 0 0 0 7.9 6.6 17.6 17.6 0 0 0 4.2 1.5c-7 6-17.3 11-18.4 11.6a22.7 22.7 0 0 1-11 .1l-5.8-10.2a30 30 0 0 1-1.9-4.4c0-.1 0-.2 0-.2h0a2.4 2.4 0 0 0-.1-.2 21.5 21.5 0 0 0 10.2.4l1-.2c-4.4-.4-8.8-1-12-2.4a70 70 0 0 1-1.2-4.6l2 .1a57 57 0 0 0 8.8-.4l3-.6a55 55 0 0 1-10.8-.1l-4.8-.5zm-22 32.8c4-8 15.6-18.7 24.8-20.8.3.8.7 1.6 1 2.3l6.2 11 .4.1a19.5 19.5 0 0 0 6.1.8 27.3 27.3 0 0 0 6.5-.8l.2-.1 1.4-.7c1 1 1.8 2 2.6 3l1 1.2c1 1 2 2.3 3 3.4l3.6 4.2.8.8c2.2 2.3 4.5 4.7 7.6 6a20.9 20.9 0 0 0 5.1 1.6 12.1 12.1 0 0 0 2.8 0 10.5 10.5 0 0 1 2.4 0c2.4.5 3.7 3 5 5.5l6.3 11.5v-11.3c0-3 .3-6.2.6-9.2.6-6 1-12-.4-18l-3.6-19.4 3.7-3 1 .4a75.3 75.3 0 0 1 3.9 9c.3 1 .6 1.7 1 2.6l6.2 24.5c.5 2.2.8 4.2 1 5.8s.7 2.8 1 3.6l.3 1.2-.8-8.5a77.6 77.6 0 0 0-1.1-8.5 467 467 0 0 0-3-16.4 55.6 55.6 0 0 0-2.2-8l-1.4-3.5 63.5 27.7a259 259 0 0 1-.1 41.8l-30.8-5a77.6 77.6 0 0 0 13.9-9.1l2.6-2.4a18.6 18.6 0 0 0 1.8-2l1.4-1.7c-3.6 3.7-8 6.4-12 9l-10.7 6h-.7a73.7 73.7 0 0 0 11.5-14.3l2-3.2 2.2-4.7a98.5 98.5 0 0 1-9.3 12.9l-8.6 9-1-.2-.2 1.3c0-.5 0-1 .1-1.6a77.9 77.9 0 0 0 8.8-17.7 62.3 62.3 0 0 0 1.9-6.5l.6-2.4a137.4 137.4 0 0 1-11.3 23.2l.2-5a67.2 67.2 0 0 0-.2-8.8c-.4-5.2-.8-9.3-.8-12-.1-1.4.1-2.5.1-3.2v-1c-1 6-.5 12-.5 17.8l-.5 8.8q-.4 4.4-.7 9c-.5 6-.8 11.7-1.3 17.4l-1 6.8h-1l-9.8-.1c-3.2 0-6.2.2-9-.1l-4.2-.3a10.8 10.8 0 0 1-3.5-1h0l-.8-18.2-.6 16.6-1.6-2a21 21 0 0 1-1.4-1.9l.7-.3-8-8.8a118.5 118.5 0 0 0-12.2-13l-5.8-5.2a18.6 18.6 0 0 0-4.3-4.4c-3.4-5-6.4-10.3-11-14.7q-1.6-1.5-3.2-3a50.4 50.4 0 0 0-9.4-6.7 26.4 26.4 0 0 0-11-3.4 16.5 16.5 0 0 0-7.6 1.3 16 16 0 0 0-1.8 1l-.6.3a16.9 16.9 0 0 1 9-1.5 25.3 25.3 0 0 1 8.4 2.6 20.6 20.6 0 0 0-4.4-.2 29.3 29.3 0 0 0-11 3.2 43.5 43.5 0 0 0-4.9 2.8 29.4 29.4 0 0 0-4.5 3.5 19.8 19.8 0 0 0-2.4 3 27.7 27.7 0 0 1 2.4-9.4zm-.3 12.3a17.9 17.9 0 0 1 5.6-6.1 41.9 41.9 0 0 1 7.3-4.3 26.7 26.7 0 0 1 7.6-2.2 20 20 0 0 1 7.4.7 33 33 0 0 1 12 7.5 63.1 63.1 0 0 1 8.2 9.9h0l-2-1.5a38.6 38.6 0 0 0-10-5.5 33 33 0 0 0-4.2-1.2l-3.2-.4h-2.7a40.7 40.7 0 0 1 15.8 8l3.6 3c-1.5-.3-3-.6-4.4-.8l-9.3-1.5a60.2 60.2 0 0 1-7.1-1.6 16 16 0 0 1-4.2-1.9 7.4 7.4 0 0 1-1-.8l-.3-.3a13.3 13.3 0 0 0 5.6 4.2 46.6 46.6 0 0 0 6.5 2.4l6.6 1.7 6.4 1.5a26.2 26.2 0 0 1 9.5 4.4.8.8 0 0 0 .1.1h0c.3.2.6.4 1 .6l15.7 13.6a95.1 95.1 0 0 1 8.6 9.9c-5.4 1.8-20.7 7.4-32.7 15.6h0l-3.6 2.2c-.8.5-1.6 1-2.4 1.6l-2.2 1.8c-.8.6-1.5 1.2-2 1.8l-2 2-14-13a99.4 99.4 0 0 1-13.3-15.9 58 58 0 0 1-7.5-18 30.6 30.6 0 0 1-1.2-9.1 18.1 18.1 0 0 1 2.3-8.3z" class="K"/><path d="M57 327l7.4 4.7-9.4-8a11.9 11.9 0 0 0-2.7-2.4l-.1-.1a14.3 14.3 0 0 0-2.6-1.3 23.4 23.4 0 0 0-8.1-1.3 24.7 24.7 0 0 0-8.4 1.4 19.6 19.6 0 0 0-6.6 4 22.6 22.6 0 0 0-4.8 6.5 33.6 33.6 0 0 0-2.9 8.8q-1 5.4-2 10.7l-6.2 32.5a27.8 27.8 0 0 0-.5 7.7 12.4 12.4 0 0 0 1.8 5.7 9.2 9.2 0 0 0 4.1 3.5l23.6 8-14.6-7 2.7-.4a35.7 35.7 0 0 0 9.3-2.8 25.9 25.9 0 0 0 7.1-4.8 23.8 23.8 0 0 0 4.9-6.7 28.8 28.8 0 0 0 2.6-8.4l3-18.3q.5-3 1-6L37 354.4l-2 11.3 6-.6-2.5 14.5a13.9 13.9 0 0 1-1.1 3.7 8.7 8.7 0 0 1-1.8 2.6 8.4 8.4 0 0 1-2.6 1.6 11.5 11.5 0 0 1-3 .8h-1.6a5.6 5.6 0 0 1-2.2-.4 3.2 3.2 0 0 1-1.5-1.2 4.8 4.8 0 0 1-.7-2.2 12.2 12.2 0 0 1 .2-3.2l2-11q1-5.5 2-11L32 338a14.8 14.8 0 0 1 1.1-3.7 8.2 8.2 0 0 1 1.8-2.5 6.7 6.7 0 0 1 2.3-1.4 9 9 0 0 1 2.9-.5h.3a7.3 7.3 0 0 1 2.6.4 3.9 3.9 0 0 1 1.8 1.3 5 5 0 0 1 .9 2.3 11.6 11.6 0 0 1-.1 3.5l-1.4 8.3 12.4-.7 1.2-7.4a24 24 0 0 0 .1-8.1 14.3 14.3 0 0 0-.7-2.6zm165.6 30.6v-10.2h-18.3v9.2h6v12a8 8 0 0 1-.5 2.9 4.9 4.9 0 0 1-1.4 2 5.9 5.9 0 0 1-2.2 1.1 11.7 11.7 0 0 1-2.9.4h-.2a10.4 10.4 0 0 1-2.8-.3 5.2 5.2 0 0 1-2.1-1.1 4.3 4.3 0 0 1-1.3-1.9 7.8 7.8 0 0 1-.4-2.9q.1-4.4.2-8.7l.4-17.3q.1-4.3.2-8.6a8.4 8.4 0 0 1 .5-2.9 5 5 0 0 1 1.4-1.9 5.8 5.8 0 0 1 2.1-1.1 10.9 10.9 0 0 1 2.8-.4 10 10 0 0 1 2.7.3 5.4 5.4 0 0 1 2.1 1.1 4.6 4.6 0 0 1 1.3 1.9 8.2 8.2 0 0 1 .4 2.9v6.8h12v-6.2a17.7 17.7 0 0 0-1.2-6.8 13 13 0 0 0-3.6-5 16 16 0 0 0-5.9-3.1 29 29 0 0 0-8.2-1.1 29.3 29.3 0 0 0-8.2 1.1 16.7 16.7 0 0 0-6 3.1 13.6 13.6 0 0 0-3.8 5 18.7 18.7 0 0 0-1.5 6.9l-1.3 33.6a17.3 17.3 0 0 0 1 6.8 7.2 7.2 0 0 0 .4.8h0l8.6 18-3.3-12.5a17.9 17.9 0 0 0 3.8 1.6 30.4 30.4 0 0 0 8.4 1h.8a33.5 33.5 0 0 0 8.8-1.2 17.8 17.8 0 0 0 6.3-3.2 13.1 13.1 0 0 0 3.8-5.1 17.5 17.5 0 0 0 1.3-6.9v-5zm104.4-4q-2.6-8.7-5-17.2-2.5-8.6-5-17h-18.6l-6 11.7 5.5-8.8q-.8 6.8-1.7 13.6-1 8.2-2 16.4-1 8.2-2.2 16.5-1 8.2-2.3 16.5l9.5.6-6.4 10.3 9.4-10 1.4-12 16.5 1 3.5 12.7 11 1-11 10 13.8-9.6q-2.7-9-5.3-17.8-2.6-8.8-5-17.6zm-12.7 11.8l-9.6-.5 3.5-33.7 9.4 34.4zm119 16.6l-4-21q-1-5.2-2-10.5-1-5.2-2-10.4a33.4 33.4 0 0 0-2.9-8.7 21.2 21.2 0 0 0-4.7-6.4 19 19 0 0 0-6.6-3.9 26.3 26.3 0 0 0-8.6-1.3h-20l-8.7 8.4a15.5 15.5 0 0 0-3.6-4.2 17.6 17.6 0 0 0-6.3-3.2 32 32 0 0 0-8.7-1.1H336l-9 11.3 9-9q.8 7.3 1.7 14.7 1 8.7 2 17.5 1 8.8 2 17.6 1 9 2 17.7l11 1.2-13 9.8 16-9.5-2.8-22q-.4-3.7-1-7.3l4.6.3a14.7 14.7 0 0 1 4 .8 8.1 8.1 0 0 1 2.9 1.8 8.9 8.9 0 0 1 2 3 18 18 0 0 1 1.1 4.4l2.2 15.3a23.6 23.6 0 0 0 .6 2.4 12.3 12.3 0 0 0 .6 1.7l.7 1.4 10.7 1.4-16 9.5 19.3-9a18.8 18.8 0 0 1-1.1-2.2 20.5 20.5 0 0 1-.8-2.2l-.5-2.4c-.2-.8-.3-1.7-.4-2.6l-1.7-11.7a34 34 0 0 0-1.3-5.5 20.9 20.9 0 0 0-2.2-4.7 16.1 16.1 0 0 0-3.2-3.7 16.8 16.8 0 0 0-4.5-2.7 10.7 10.7 0 0 0 3.5-2.1 8.9 8.9 0 0 0 2.2-3.1 12.6 12.6 0 0 0 1-4.2 24.1 24.1 0 0 0-.3-5.2l-1-6a25.4 25.4 0 0 0-2.2-7.5c-.2-.3-.4-.6-.5-1l9-6q1.3 8 2.5 16.2 1.5 9.5 3 19 1.5 9.5 3 19 1.5 9.6 3 19.3l16.5 2.5 8 1-18 8.4 25.6-8.8a12.3 12.3 0 0 0 1.6-.6 8.9 8.9 0 0 0 4-3.4 12 12 0 0 0 1.7-5.6 27.8 27.8 0 0 0-.6-7.7zm-68.6-34a4.6 4.6 0 0 1-1.1 2.3 4.2 4.2 0 0 1-2 1.2 9.3 9.3 0 0 1-2.8.4h-1l-5-.3-2.8-22h6.2a9.4 9.4 0 0 1 3 .5 5.9 5.9 0 0 1 2.2 1.4 6.8 6.8 0 0 1 1.5 2.3 13.9 13.9 0 0 1 .8 3.4l1 7.2a10.6 10.6 0 0 1 0 3.5zm51 39.8h-1.2l-8.2-1q-1.2-7-2.4-14-1.2-7-2.4-14-1.2-7-2.4-14-1.2-7-2.3-14l7.3.2a9.1 9.1 0 0 1 2.8.5 6.5 6.5 0 0 1 2.3 1.4 8 8 0 0 1 1.7 2.4 14.5 14.5 0 0 1 1.1 3.7q1 5.2 2 10.4 1 5.2 2 10.5l2 10.5q1 5.3 2 10.6a12.9 12.9 0 0 1 .2 3.2 4.9 4.9 0 0 1-.6 2.2 3.2 3.2 0 0 1-1.4 1.2 5.5 5.5 0 0 1-2.1.3zm-132.3-68.4h-6q-1 3.7-2 7.4-1 3.7-2 7.3l-4 14.6-11-29.4H245l-1.7 11.7 2.7-9.4 3.4 8.3q2.2 5.3 4.4 10.7 2.2 5.4 4.5 10.8l4.6 11 1 21.6 10.6.4-3.3 10.3 6.2-10.2-1.2-21.8q1.8-5.4 3.6-10.8 1.8-5.4 3.5-10.8 1.7-5.4 3.4-11 1.7-5.4 3.3-11h-6zM111 335.8l-7.7-9a12 12 0 0 0-2.5-3.7 14.1 14.1 0 0 0-5.7-3.4 28.8 28.8 0 0 0-16.6.1 18.6 18.6 0 0 0-11.1 9.5 26.4 26.4 0 0 0-2.5 8q-.7 5-1.5 9.7-.8 5-1.5 9.8-.7 5-1.5 9.8-.8 5-1.5 10a21.9 21.9 0 0 0 0 7.2 11.5 11.5 0 0 0 2.3 5.3 10.2 10.2 0 0 0 2.9 2.4h.1a11.9 11.9 0 0 0 1.7.8h.2l20.5 9.4-13-8.3 3.4-.3a35.7 35.7 0 0 0 9.1-2.3 24 24 0 0 0 7-4.2 20 20 0 0 0 4.7-6 22.8 22.8 0 0 0 2.2-7.7l4.2-36.6a21.5 21.5 0 0 0 0-5.6zm-19.5 0l-1.2 9.6q-.6 4.8-1.2 9.7-.6 5-1.2 9.7-.6 5-1.2 9.8a11.1 11.1 0 0 1-.9 3.3 7.5 7.5 0 0 1-1.7 2.4 7.6 7.6 0 0 1-2.4 1.5 11.4 11.4 0 0 1-3 .7h-1.3a6.6 6.6 0 0 1-2.3-.4 3.7 3.7 0 0 1-1.6-1.1 4.5 4.5 0 0 1-.8-2.1 10.1 10.1 0 0 1 0-3q.7-5 1.4-10l4-29.7a11.7 11.7 0 0 1 .9-3.3 6.9 6.9 0 0 1 1.6-2.2 6.5 6.5 0 0 1 2.3-1.3 9.6 9.6 0 0 1 2.8-.4h.2a8.3 8.3 0 0 1 2.6.4 4.4 4.4 0 0 1 1.9 1.2 4.6 4.6 0 0 1 1 2.1 9.8 9.8 0 0 1 .1 3.2zm42-6l-6.4-10.3h-12.7q-1 8.6-1.8 17.2-1 8.6-2 17.3-1 8.7-2 17.4-1 8.7-2 17.6l13.8 9.6-10.4-10 10.3-1q.8-8.6 1.6-17.2.8-8.6 1.6-17 .8-8.5 1.6-17 .7-7.3 1.4-14.5zm43-10.3h-11.3l-2.2 39q-1.4-5-2.8-9.7-1.4-5-2.7-9.7-1.3-5-2.7-9.7l-1.2-4.4 3.6 5.6-5-11h-16q-.7 8.3-1.4 16.7-.7 8.4-1.5 16.8l-1.5 17q-.7 8.5-1.5 17l10.8 10-7.8-10.2 9.2-.6q.5-6 1-12.2.4-6 1-12 .5-6 1-12 .4-6 1-12 1.6 6 3.2 12 1.6 6 3.3 12 1.7 6 3.4 11.8 1.7 6 3.5 11.8l7 9.4-5-10.4 11.5-.5q.4-8.2.8-16.4.4-8.2.8-16.3.4-8 .8-16.2l.6-12 4 8.5z" fill="#fff"/><path d="M42.4 470.6q23.6-3.7 47.4-6.5-8-3.3-16.3-6.4 5.3-18.8 11.2-37.5Q60 423 35.5 427q9.6 10 19 20.2-6.2 11.7-12 23.5z" fill="#005400"/><g class="I"><path d="M37 420a68.9 68.9 0 0 1 19.6 7c6.6 3.4 12.4 8 19.7 10.6-6.2-9.2-23-20-39.3-17.6z"/><path d="M43.6 416a50.2 50.2 0 0 1 15 11.1c4.6 4.7 8 10.3 13.6 14.5-1.7-10.2-12.3-24.3-28.6-25.6z"/><path d="M66 433.4c-2.5-5.6-1.8-9.8-.1-15.5a13.6 13.6 0 0 0-4.1 6.3l-.1.5c-.1.2-.1.2-.1.3-1.3 4.6-.2 9.2 1 12.6 2.5 6.5 7 10.8 14 14-2-6.5-8-11.8-10.8-18z"/></g><path d="M34 423a50.5 50.5 0 0 1 15.7 10.3c4.8 4.5 8.6 10 14.4 13.8-2.2-10.2-13.6-23.7-30-24z" class="J"/><path d="M54 416.4c-13 13.6 3.8 25.8 10.5 30.2-8.4-1.4-13.8-5.3-16.2-11-2-4.6-2.2-12.6 5.7-19z" class="I"/><path d="M53.6 414c2.6 4 8 7 10.8 11 2.7 3.7 4.5 7.8 8 11.2 1.6-9.3-6.2-19.5-18.7-22.2zm-5.2 21.6c-4-3.8-11-8-17.3-7.2 11.4 5 21.6 12.2 23.3 24.7 3-5.8-1.7-13.6-6-17.5z" class="J"/><path d="M51.8 442c-4-3.8-11-8-17.2-7.2 11.3 5 21.5 12.2 23 24.7 3-5.8-1.7-13.6-6-17.5z" class="I"/><g class="J"><path d="M43.2 474.4c5.3-11.3 22.3-20.8 29-24-18 4.4-28 15.5-29 24zm17-3a37.1 37.1 0 0 1 8.8-7.9c4-2.8 9-5.4 12.4-8.3-10 3.2-22 10.6-21.2 16.2zm8.3-.1a26.5 26.5 0 0 1 6.7-8.1c3.3-3 7.7-5.8 10.2-8.8-9 3.8-19.5 11.7-17 17zm-20 2.2a27 27 0 0 1 6.5-8.3c3.2-3 7.5-6 10-9-9 4-19.2 12-16.5 17.3z"/><path d="M81.6 468a37 37 0 0 1 9-7.7c4-2.7 9-5.2 12.5-8-10 3-22.2 10-21.5 15.7zm8.4 0a27 27 0 0 1 7-8c3.3-2.8 7.8-5.6 10.4-8.6-9.4 3.8-20 11.4-17.4 16.6zm-20-34.3a2.5 2.5 0 0 0 .7-.7 16.6 16.6 0 0 0-6.6 3.4c-8.3 7-10.4 21 1.3 24.4C64 455.4 60 451 62 445c1.6-4.7 3.3-6 8.2-11.3zm-27.3 20.7c3.5 3 8.5 4.6 12.2 7.5 3.4 2.7 6.4 6 10 8.3-2.7-9-12.4-16.3-22.3-15.8z"/><path d="M96 457.3c-2.6 2.5-6.7 4.7-9 7.3 9-2.5 16-9 16.3-14.3-3 2.2-5 4.7-7.2 7z"/><path d="M84 471.3c1.4-1.7 1.8-3.5 2.7-5.2a33 33 0 0 1 4.9-6.8 74 74 0 0 1 13.7-11C91 454 84 464 84 471.3zm-35.5 3.4a36.8 36.8 0 0 1 8.7-8c4-2.8 9-5.5 12.2-8.5-9.8 3.3-22 11-21 16.5zm8.3-.1c1.5-3 3.6-5.5 6.6-8.2l10-9c-9 4-19.3 12-16.6 17.2zm12.4-2c1.6-1.5 2.4-3.2 3.5-4.8a33.8 33.8 0 0 1 6-6A82 82 0 0 1 94 453c-15.2 3.3-24 12.4-24.8 19.5z"/><path d="M42 471.7c1.4-3 3.5-5.5 6.5-8.4 3.2-3 7.5-6 10-9-9 4-19.3 12.3-16.5 17.5zm45-21c-3.2 3.3-4.6 7-7 10.5a36.7 36.7 0 0 1-8.1 8.9c10.6-3.8 15.5-13.4 15-19.4z"/><path d="M46.8 443.8c.6 8 16 18.6 23.8 14.7-9-3.4-16.2-8.7-23.8-14.7z"/></g><path d="M77.8 451.6a88 88 0 0 1-21.8 17.6c7.8 1.7 23-9.2 21.8-17.6z" class="I"/><path d="M61.4 460a35.8 35.8 0 0 0-20.5-1.6c9.8.7 30 2.6 22.7 13.2 7-4 2.5-9.7-2-11.6z" class="J"/><g class="I"><path d="M56.6 468.2c6.2-8-1.6-12.8-11-16.2 11.5 1.5 19.6 8.7 11 16.2zm44-7.2c1.3-4 .8-13.6 25.4-16.5-15.5-2.5-35.2 9-25.4 16.5z"/><path d="M79.6 455.5a32.5 32.5 0 0 0-17.8-5.1c10.8 3 20.5 7.7 23.8 14.7 1.8-3.6-2.5-7.4-6-9.6zm12.6-2.5a53.5 53.5 0 0 0-25.2-2.5c12 1.2 36.8 4 27.3 14.3 9-3.7 3.5-9.6-2-11.7z"/><path d="M97.2 449.2c-4.2 4-8.8 9-8.3 13.4 5-4.4 8.3-9.2 13-13.7 4-3.6 10-7.2 13-11-7.4 2.4-13.7 7.4-18 11.3z"/><path d="M86.3 447a33.7 33.7 0 0 1 10.7 5.4c3.3 2.4 5.8 5.3 9.8 7.3-1.4-5.6-9-13-20.5-12.7zm-.6 5.4c-2-3-1-5.4 1-8.7a10.8 10.8 0 0 0-4.1 3.8l-.3.4a7.2 7.2 0 0 0 .2 7c1.8 3.5 5.7 5.7 12 7-1.3-3.5-6.4-6.2-8.6-9.6zm-11 2c-2-3-1-5.4.8-8.7a10.8 10.8 0 0 0-4 3.8l-.2.5a7.2 7.2 0 0 0 .3 7c1.8 3.5 5.8 5.6 12 7-1.5-3.5-6.6-6-8.8-9.4zm332-34.4a68.9 68.9 0 0 0-19.7 7c-6.6 3.4-12.4 8-19.7 10.6 6.2-9.2 23-20 39.4-17.6z"/><path d="M400 416a50.3 50.3 0 0 0-15 11.1c-4.6 4.7-8 10.3-13.6 14.5 1.7-10.2 12.3-24.3 28.6-25.6z"/><path d="M377.7 433.4c2.5-5.6 1.8-9.8.1-15.5a13.5 13.5 0 0 1 4.1 6.3l.1.5c0 .1.1.2.1.3 1.3 4.6.2 9.2-1 12.6-2.5 6.5-7 10.8-14 14 2-6.5 8-11.8 10.8-18z"/></g><path d="M409.5 423a50.4 50.4 0 0 0-15.7 10.3c-4.8 4.5-8.6 10-14.4 13.8 2.3-10.2 13.6-23.7 30-24z" class="J"/><path d="M389.6 416.4c13 13.6-3.7 25.8-10.5 30.2 8.4-1.4 13.8-5.3 16.2-11 2-4.6 2.3-12.6-5.7-19z" class="I"/><path d="M390 414c-2.6 4-8 7-10.8 11-2.7 3.7-4.5 7.8-8 11.2-1.6-9.3 6.2-19.5 18.7-22.2zm5.3 21.6c4-3.8 11-8 17.3-7.2-11.4 5-21.6 12.2-23.3 24.7-3-5.8 1.7-13.6 6-17.5z" class="J"/><path d="M391.8 442c4-3.8 11-8 17.2-7.2-11.3 5-21.5 12.2-23 24.7-3-5.8 1.7-13.6 6-17.5z" class="I"/><g class="J"><path d="M400.5 474.4c-5.3-11.3-22.2-20.8-29-24 18 4.4 28 15.5 29 24zm-17-3a37 37 0 0 0-8.8-7.9c-4-2.8-9-5.4-12.4-8.3 10 3.2 22 10.6 21.2 16.2zm-8.4-.1a26 26 0 0 0-6.7-8c-3.3-3-7.7-5.8-10.2-8.8 9 3.8 19.4 11.7 17 17zm20 2.2c-1.4-3-3.6-5.5-6.6-8.3-3.2-3-7.5-6-10-9 9 4 19.2 12 16.6 17.3z"/><path d="M362 468a36.8 36.8 0 0 0-9-7.7l-12.5-8c10 3 22.2 10 21.5 15.7zm-8.2 0a27 27 0 0 0-7-8c-3.3-2.8-7.8-5.6-10.4-8.6 9.2 3.6 19.7 11.3 17.3 16.6zm20-34.3a2.6 2.6 0 0 1-.7-.7 16.5 16.5 0 0 1 6.6 3.4c8.3 7 10.4 21-1.3 24.4 1.5-5.4 5.5-9.7 3.5-15.7-1.6-4.7-3.3-6-8.2-11.3zm27.2 20.7c-3.5 3-8.5 4.6-12.2 7.5-3.4 2.7-6.4 6-10 8.3 2.7-9 12.4-16.3 22.3-15.8z"/><path d="M347.6 457.3c2.6 2.5 6.7 4.7 9 7.3-9-2.5-16-9-16.3-14.3 3 2.2 5 4.7 7.3 7z"/><path d="M359.6 471.3c-1.4-1.7-1.8-3.5-2.7-5.2a32.7 32.7 0 0 0-4.9-6.8 75 75 0 0 0-13.7-10.9c14.5 5.6 21.6 15.8 21.4 23zm35.6 3.4a36.8 36.8 0 0 0-8.7-8c-4-2.8-9-5.5-12.2-8.5 9.8 3.3 22 11 21 16.5zm-8.2-.1c-1.5-3-3.6-5.5-6.6-8.2-3.2-3-7.6-6-10-9 9 4 19.2 12 16.6 17.2zm-12.5-2c-1.6-1.5-2.4-3.2-3.5-4.8a33.8 33.8 0 0 0-6-6 82 82 0 0 0-15.3-8.7c15.2 3.3 23.8 12.4 24.8 19.5z"/><path d="M401.7 471.7a27 27 0 0 0-6.5-8.3c-3.2-3-7.5-6-10-9 9 4 19.2 12.3 16.5 17.5zm-45.2-21c3.2 3.3 4.7 7 7 10.5a36.7 36.7 0 0 0 8.1 8.9c-10.7-3.8-15.6-13.4-15-19.4z"/><path d="M396.8 443.8c-.6 8-16 18.6-23.8 14.7 9-3.4 16.2-8.7 23.8-14.7z"/></g><path d="M404.6 461.4c-7.3 5.5-28.6 1.5-31.5-7.8 10.2 4.8 20.4 6.4 31.5 7.8zm-38.8-9.8a88 88 0 0 0 21.8 17.6c-8 1.7-23-9.2-21.8-17.6z" class="I"/><path d="M382.3 460a35.8 35.8 0 0 1 20.5-1.6c-9.8.7-30 2.6-22.7 13.2-7-4-2.5-9.7 2-11.6z" class="J"/><g class="I"><path d="M387 468.2c-6.2-8 1.6-12.8 11-16.2-11.4 1.6-19.5 8.8-11 16.2zm-44-7.2c-1.3-4-.8-13.6-25.4-16.5 15.5-2.5 35.2 9 25.4 16.5z"/><path d="M364 455.5a32.5 32.5 0 0 1 17.8-5.1c-10.8 3-20.5 7.7-23.8 14.7-1.7-3.6 2.5-7.4 6-9.6zm-12.5-2.5a53.5 53.5 0 0 1 25.1-2.5c-12 1.2-36.8 4-27.3 14.3-8.8-3.7-3.5-9.6 2.2-11.7z"/><path d="M346.5 449.2c4.2 4 8.8 9 8.3 13.4-5-4.4-8.3-9.2-13-13.7-4-3.6-10-7.2-13-11 7.4 2.4 13.7 7.4 18 11.3z"/><path d="M357.4 447a33.9 33.9 0 0 0-10.7 5.4c-3.3 2.4-5.8 5.3-9.8 7.3 1.3-5.6 9-13 20.5-12.7zm.6 5.4c2-3 1-5.4-1-8.7a10.7 10.7 0 0 1 4.1 3.8 2.1 2.1 0 0 1 .2.3l.1.2a7.2 7.2 0 0 1-.2 7c-1.8 3.5-5.7 5.7-12 7 1.4-3.5 6.4-6.2 8.6-9.6zm11 2c2-3 1-5.4-.8-8.7a10.7 10.7 0 0 1 4 3.8l.3.5a7.2 7.2 0 0 1-.3 7c-1.8 3.5-5.7 5.6-12 7 1.5-3.5 6.6-6 8.8-9.4zm-126.2-86c-1 1.3-1.5 2.6-2.4 4a13.5 13.5 0 0 1-3.8 3c4.7-.8 6.6-4.5 6.2-7z"/><path d="M247 374a5.5 5.5 0 0 0 2.2-.2c-2-.4-3.2-1-4-2.4-1-1.7-1-4.2-2.2-5.7-1 2.4-.8 4.4.3 6a5.3 5.3 0 0 0 3 2.2 5 5 0 0 0 .7.1z"/></g><g class="J"><path d="M244.8 375h0a5.1 5.1 0 0 0 2 .8c-1.5-1.2-2.5-2.2-2.6-4-.1-2 1-4.2.5-6-2 1.8-2.7 3.6-2.3 5.6a5.3 5.3 0 0 0 1.8 3.3 4.2 4.2 0 0 0 .6.4z"/><path d="M237.6 366.3c1.3 1.6 3.5 2.6 3.2 5-.2 2-.8 2.7-2.3 5.3a1.2 1.2 0 0 0-.2.3 9 9 0 0 0 2.4-2.2c2.8-3.7 2.5-9-3.2-8.3z"/></g><path d="M240 365.8h1.3l1.4 6.8c0 .2 0 .4.1.6s0 .4.1.6v.6a5.5 5.5 0 0 1 0 .6l-4.5 59.8 3.2-60a22.5 22.5 0 0 0-.6-4.4c-.3-1.6-.7-3-1-4.6z" class="I"/><path d="M253.5 363a11.7 11.7 0 0 0-1.7.1l-2.2.4c1-.5 2-1 2.8-1.4.5-.3.7-.7.6-.8s-.5-.3-1-.2a10.8 10.8 0 0 0-1.8.7l.3-.2c.5-.4.5-1 .3-1s-.6-.1-1 .1h-.1c.3-.3.6-.6.8-1 .4-.5.3-.8.2-1s-.6-.1-1 .2q-.2.2-.5.4a3 3 0 0 0-.3.2 3.4 3.4 0 0 0-.3.3c-.1.1-.3.3-.4.4h-.1l.8-1c.3-.3.4-.8.3-1s-.6-.2-1 .1l-.8.6c-.1.1-.2.2-.3.3l-.1.1a1.1 1.1 0 0 0-.5.3l-.3.4-.2.2v.1a14 14 0 0 0 .8-1.6c.2-.5.1-.8-.1-1s-.5 0-.8.3a.6.6 0 0 0-.1-.3.1.1 0 0 0-.1-.1c-.1 0-.4.2-.6.6a7.1 7.1 0 0 0-.3.8 7.7 7.7 0 0 0 .1-.8c.1-.5-.2-.8-.4-.8s-.5.2-.7.6a4.7 4.7 0 0 0-.2.6v-.3c-.1-.4-.4-.6-.6-.6a.4.4 0 0 0-.2.2.7.7 0 0 0-.1-.2.2.2 0 0 0-.1-.1c-.1 0-.2.1-.3.3v-.4a.8.8 0 0 0-.2-.5.6.6 0 0 0-.3-.2c-.2-.1-.5.2-.6.6a3.6 3.6 0 0 0-.1.9h-.2a.7.7 0 0 0-.5.6 3.6 3.6 0 0 0 0 .9 10.2 10.2 0 0 0-.7-1.6c-.2-.4-.6-.5-.7-.4s-.3.4-.3.8c-.2-.3-.5-.4-.6-.4s-.4.5-.3 1a5 5 0 0 0 .1.6 4.9 4.9 0 0 0 .2.6.6.6 0 0 0 0 .1q-.5-.5-1-1a.7.7 0 0 0-.8-.2c-.2.1-.2.6 0 1l.3.5a4.3 4.3 0 0 0 .4.5l.1.2a.8.8 0 0 0-.5-.2h-.1c0 0-.1.4.1.7a2.2 2.2 0 0 0 .2.3l-.4-.3-1.4-.8a1.3 1.3 0 0 0-.3-.1h-.3a.5.5 0 0 0-.3.1.4.4 0 0 0 0 .4 1.2 1.2 0 0 0 .2.4l-.3-.1-.8-.3a1.9 1.9 0 0 0-.7-.1.4.4 0 0 0-.3.2c0 .1 0 .2.1.4a1.4 1.4 0 0 0 .5.5h-.2a1.5 1.5 0 0 0-.9 0c-.2.1-.3.2-.3.3s.1.2.3.4a2.7 2.7 0 0 0 .7.4l1.6.7-.8-.3a1.4 1.4 0 0 0-.8-.1.1.1 0 0 0-.1 0 .1.1 0 0 0 0 .1 10.8 10.8 0 0 0-1.4-.2 2.8 2.8 0 0 0-.5 0 1.1 1.1 0 0 0-.4.1.4.4 0 0 0-.3.3c0 .2.5.5 1 .6l1.7.5a18 18 0 0 0 1.1.3l.5.1h-3.4a1.8 1.8 0 0 0-.9.3c-.2.1-.3.2-.2.3s.1.2.3.3a2.3 2.3 0 0 0 .8.2c.3 0 .6.1 1 .1a7 7 0 0 0-2.2 1.6 1.7 1.7 0 0 0-.2.2 1.1 1.1 0 0 0-.1.2 1.3 1.3 0 0 0-.1.3.4.4 0 0 0 .1.4c.1.1.2 0 .4 0a2.7 2.7 0 0 0 .5-.2h0a1.3 1.3 0 0 0-.4.6.4.4 0 0 0 0 .4c0 .1.2.1.4.1a1.1 1.1 0 0 0 .3 0h0a.2.2 0 0 0 0 .1c0 .1.1.1.3.2a2.1 2.1 0 0 0 .8 0l-.3.2a1.6 1.6 0 0 0-.3.3 1.1 1.1 0 0 0-.2.3.4.4 0 0 0 0 .4.2.2 0 0 0 .2.1h.3a2.4 2.4 0 0 0 .7-.2l.3-.2h.4l.7-.4a1.8 1.8 0 0 0-.4 1 .1.1 0 0 0 0 .1c.1.1.6-.1 1-.5l.7-.6a1.2 1.2 0 0 0 0 .7.3.3 0 0 0 .1.1.5.5 0 0 0 .4-.1h0l-.3.5a2 2 0 0 0-.2 1.1s0 .1.1.1.5-.3 1-.8.7-1 1.2-1.6l.3-.4a1.9 1.9 0 0 0 0 .6 7.5 7.5 0 0 0-.3 1.3 1.5 1.5 0 0 0 .2 1.1.2.2 0 0 0 .1.1c.1 0 .2-.1.3-.3a2 2 0 0 0 .2-.3l.2-.4.5-1.2a3.9 3.9 0 0 0 .3-.3c0 .2-.1.4-.1.5l-.1.8a1.3 1.3 0 0 0 .1.9.2.2 0 0 0 .1.1c.1 0 .4-.2.7-.7a8.5 8.5 0 0 0 .4-1.3.5.5 0 0 1 0 .1 6.7 6.7 0 0 0 0 1.3v.3a1.7 1.7 0 0 0 .1.3.7.7 0 0 0 .2.3s.1 0 .1 0 .2-.1.3-.3a3.3 3.3 0 0 0 .2-.7 1.9 1.9 0 0 0 .1-.3c0-.1.1-.2.1-.4s0-.3.1-.4l.1-.1a.3.3 0 0 0 0 .1c0 .2.1.3.1.5l.4 1.4a1.2 1.2 0 0 0 .4.6h.1c.1 0 .2-.1.2-.2a.9.9 0 0 0 .1-.3 3 3 0 0 0 0-.3 5.3 5.3 0 0 0-.2-1.3l-.2-1a5.5 5.5 0 0 0 .3.6 1 1 0 0 0 .6.5h.1c.1-.1.2-.4.1-.8a5.5 5.5 0 0 0-.1-.6 2.4 2.4 0 0 0 .4.3 4.3 4.3 0 0 0 .5 1 .9.9 0 0 0 .6.4.2.2 0 0 0 .1 0 .4.4 0 0 0 .1-.3h0a.9.9 0 0 0 .8.3.2.2 0 0 0 .1-.1.5.5 0 0 0 .1-.4 1.5 1.5 0 0 0-.1-.5c0-.1-.1-.2-.2-.4a.5.5 0 0 0 .2 0l.1-.1a.8.8 0 0 0-.2-.7h0a1.5 1.5 0 0 0 .4 0 8.5 8.5 0 0 0 .7.6.9.9 0 0 0 .8.2.3.3 0 0 0 .1-.1c.2-.1.2-.5 0-1a.2.2 0 0 0 .1-.1c.1-.1-.1-.4-.4-.7v-.1a2.4 2.4 0 0 0 .5 0 1.9 1.9 0 0 0 .4-.1c.3.1.6.3 1 .4a1.1 1.1 0 0 0 .8 0 .3.3 0 0 0 .1-.1c.1-.2 0-.6-.3-1a4.5 4.5 0 0 0-.5-.4l-.2-.1h.3a.9.9 0 0 0 .7-.3.2.2 0 0 0 0-.1.4.4 0 0 0-.2-.3.9.9 0 0 0-.2-.1l.8.1a1.2 1.2 0 0 0 .8-.1.2.2 0 0 0 .1-.1c.1-.1-.2-.4-.7-.7a2.9 2.9 0 0 0-.3-.1.9.9 0 0 0 .2-.1h.3c.4 0 .7 0 1-.1a1.7 1.7 0 0 0 1-.3.2.2 0 0 0 0-.1c0-.2-.4-.4-1-.5-.3 0-.6-.1-1-.1h.1a.2.2 0 0 0 0-.1c0-.1-.1-.1-.3-.2a1.4 1.4 0 0 0-.3 0h.1a7.5 7.5 0 0 0 1.3-.4l.3-.2a1.5 1.5 0 0 0 .2-.2.9.9 0 0 0 .2-.3l1.5-.3c.7-.1 1-.4 1-.6s-.4-.3-1-.3z" fill="#fcee21"/><g class="I"><ellipse cx="241.5" cy="366.2" rx="2.5" ry="1.3" transform="matrix(.94 -.35 .35 .94 -113.76 108.88)"/><path d="M338.8 428c3.4-3.4 5.2-7.5 8-11.2 3-4 8.2-7 10.7-11-12.6 2.7-20.3 13-18.6 22.4zm-13-23l-.4-.4a19.3 19.3 0 0 0-7.6-4.6c4.5 4.6 7 8.2 6.4 13.7-.8 6-6 12.2-5.7 18.3 7.4-4.3 11.2-9 11.5-15.4a15.2 15.2 0 0 0-4-11.3c0-.1-.1-.2-.2-.2z"/><path d="M314.4 404a30 30 0 0 0-9.7-2.9 3.6 3.6 0 0 0 1 .7c7.7 4.8 10.2 6 13.3 10.8 3.8 5.8-1 10.5-2 16 15.6-4.3 10.2-18.3-2.4-24.5zm26.3 1.4a15.6 15.6 0 0 0-5.9-6.1c3 5.6 4.2 10 1.6 15.5-3 6.4-10 12-11.8 18.5 8.7-3.3 14-7.7 16.6-14.4 1.3-3.6 2.3-8.6-.4-13.5zm-72-3a3.6 3.6 0 0 0 1.1-.6 29.6 29.6 0 0 0-9.8 2.4c-13 5.6-19 19.2-3.8 24.3-1-5.5-5.3-10.5-1.2-16 3.3-4.5 6-5.7 13.8-10zm-104.4-3.2a84 84 0 0 1 48.1 32.8c-.6-18-24.2-30.4-48-32.8z"/><path d="M350.5 405a3.7 3.7 0 0 0 1.1-.6 29.6 29.6 0 0 0-9.8 2.3c-13 5.5-19.2 19-4 24.3-.8-5.5-5.2-10.5-1-16 3.3-4.4 6-5.6 13.8-10zm-118.3-6.4a15.6 15.6 0 0 0-6.3 5.6 16 16 0 0 0-1.5 13.4c2 6.8 7 11.7 15.2 15.7-1.2-6.7-7.8-12.8-10.2-19.4-2-6-.4-10 2.8-15.3zm-50.2 9c-3 5-5.6 11.8-3.6 17 5.6-4.5 7.3-11.8 10.7-17 3-5 7.7-8.4 12-12.8-10.7 2.8-16.3 8-19.2 13zm-55.8 4.6c-2.8 5.2-5 12-2.8 17 5.4-4.7 6.8-12 10-17.6 3-5 7.3-8.8 11.5-13.3-10.5 3.2-16 8.7-18.6 13.7z"/><path d="M201.3 403c-13 5.5-19.2 19-4 24.3-.8-5.5-5.2-10.5-1-16 3.3-4.4 6-5.6 13.8-10a3.7 3.7 0 0 0 1.1-.6 29.7 29.7 0 0 0-9.8 2.3zm37-.5l-.3-.7a12.7 12.7 0 0 0-4.9-5.1c2.5 4.8 3.8 8.4 2 13.6-2 5.8-7 11.2-8 17.2 6.5-3.5 10.5-7.8 12-14 .8-3 1.3-7.3-.6-11.2z"/><path d="M230.2 390.3a39.3 39.3 0 0 1 9.5 14.2c2.3 5.6 3.3 11.8 6.8 17.2 2.5-10.2-1.5-26.3-16.3-31.4zm55.8 9.5a29.3 29.3 0 0 0-10 1.1c-13.5 4-21.2 16.6-6.8 23.6-.1-5.6-4-11 .8-16 3.8-4 6.5-4.8 15-8.2a3.4 3.4 0 0 0 1.1-.4zm-114-.2a15.5 15.5 0 0 0-5.9 6.1c-2.7 4.8-1.8 10-.6 13.5 2.4 6.7 7.7 11.2 16.4 14.5-1.7-6.6-8.7-12.2-11.6-18.6-2.6-5.7-1.2-10 1.7-15.5zm50.7-6.6a15.5 15.5 0 0 0-6.2 5.8c-3 4.7-2.2 9.8-1 13.4 2 6.7 7.3 11.5 15.8 15.2-1.4-6.7-8.2-12.6-10.8-19-2.3-5.8-.8-10 2.4-15.4zm73.3 9.5c-13 5.5-19.2 19-4 24.3-.8-5.5-5.2-10.5-1-16 3.3-4.4 6-5.6 13.8-10a3.7 3.7 0 0 0 1-.6 29.4 29.4 0 0 0-9.7 2.3zm-181.5-4a15.6 15.6 0 0 0-5.7 6.3c-2.5 5-1.4 10 0 13.5 2.7 6.5 8.3 10.8 17 13.8-2-6.5-9.3-11.8-12.5-18-2.8-5.6-1.6-10 1-15.6zm-10 2.4a17.7 17.7 0 0 0-6.6 6c-3.2 4.8-3 10-2 13.6 1.7 6.8 6.5 11.4 14.8 15-1-6.7-7.4-12.5-9.6-19-2-5.8-.1-10 3.4-15.6zm-48.7 10.8c4.3 3 11 4.8 15.5 8 4.3 3 8 6.3 12.7 8.7-2.4-9-14.6-16.8-28.2-16.6zM70 406c2.7 4 8.2 6.8 11.2 10.6 2.8 3.6 4.8 7.7 8.3 11 1.3-9.4-7-19.3-19.6-21.6zm289.8 22.5c4.8-2.4 8.4-6 12.7-8.7 4.6-3 11.2-4.8 15.5-8-13.6-.2-25.8 7.7-28.2 16.6zm14-22.5c-12.7 2.2-21 12.2-19.6 21.6 3.6-3.2 5.5-7.3 8.3-11 3-4 8.5-6.7 11.2-10.6z"/></g><g class="J"><path d="M151 399.3l-.4.2a29.5 29.5 0 0 0-11.7 10.6c-4.3 6.6-4.3 12.7-.8 19.2 4.5-6.3 4.4-14 8-20.6 3.3-6 8.2-8.8 15.5-12.2a26.8 26.8 0 0 0-10 2.6zm31-4c-5.4 3-8.2 11.2-8.7 15.7-.7 5.7-.7 12.8 3 17.8 4-4.8 2.7-12.2 2.7-17.3 0-7.8 2.8-10.7 3-16zm150 10.3a50.4 50.4 0 0 1 15 11.1c4.6 4.7 8 10.4 13.6 14.6a33 33 0 0 0-28.6-25.7zm-26.3 22c5.5-4.2 9-10 13.4-14.6a50.1 50.1 0 0 1 14.8-11.2c-16.2 1.4-26.6 15.5-28.2 25.8zM253 398c-6 4-6.6 10-4 14a30 30 0 0 0 20.8 12c-9.8-6.5-24.3-15-16.8-25.7zm5.7-3.5a39.3 39.3 0 0 1 9.5 14.3c2.3 5.6 3.3 11.8 6.8 17.2 2.5-10.2-1.5-26.3-16.3-31.4zm-40 31.8c.5-2.6-.4-5.3-.4-8a27 27 0 0 1 2-9.3c2.2-5.4 6-10.4 8.3-15.7-13.4 8-18.5 22.7-10 33zm-121.6-25c9.3 12.8 1.8 29 1.7 34.8 9.5-10.6 12-27-1.7-34.8z"/><path d="M155.8 401.2a50.4 50.4 0 0 1 15 11.1c4.6 4.8 8 10.4 13.6 14.6-1.7-10.3-12.2-24.4-28.6-25.7zm42.2-1.8c9.3 12.8 1.8 29 1.7 34.8 9.5-10.6 12-27-1.7-34.7zm12-4.2c8.3 13.4-.2 29-.7 34.8 10-10 13.6-26 .7-34.8zm46.5 17.8c-2.3-5.8-.7-10 2.5-15.4a15.7 15.7 0 0 0-6.3 5.8c-3 4.7-2.3 9.8-1.2 13.4 2 6.8 7.2 11.5 15.7 15.3-1.4-6.7-8-12.6-10.7-19z"/><path d="M116.5 415.8c-.4 5.7-.2 12.8 4 17.6 3.7-5 2.2-12.3 2-17.4-.3-7.8 2.3-11 2.2-16.3-5.3 3-7.8 11.6-8 16zm12-16.6c-.3 10 7.8 23 18.7 22.4a105 105 0 0 1-18.7-22.4zm131 36a89.2 89.2 0 0 1 16.2-19.2l19-17.6a94.7 94.7 0 0 0-23.2 16.3c-6.2 5.8-12.8 13.3-12 20.5zm53.3-19.2a41 41 0 0 0-15-18c3.4 6.6 8.3 12.6 11.6 19.3 3.7 7.6 5.7 16 9.6 23.6a46 46 0 0 0-6-24.7zM87 405.6c2.6 4 8 7 10.7 11 2.7 3.7 4.5 8 8 11.3 1.7-9.3-6-19.6-18.6-22.4zm-.7 11c-3-5.5-1.8-9.8.8-15.6a15.5 15.5 0 0 0-5.5 6.4 16 16 0 0 0 .3 13.5c2.8 6.5 8.3 10.7 17 13.5-2-6.5-9.4-11.6-12.7-17.8zm121.3-19a15.5 15.5 0 0 0-6.1 5.9c-2.8 4.8-2 9.8-.8 13.5 2.2 6.7 7.5 11.3 16 15-1.6-6.6-8.4-12.4-11.2-18.8-2.4-5.7-1-10 2-15.5zm25.4 10.7c-4.6 6.2-9.2 14-6.3 21a69 69 0 0 1 10.9-20.1c4.7-6.2 11-12.2 14-18.8a73.6 73.6 0 0 0-18.6 18zm129-.8a15.5 15.5 0 0 0-5.5-6.4c2.5 5.8 3.6 10 .8 15.6-3.3 6.2-10.5 11.4-12.7 17.8 8.8-2.8 14.4-7 17.2-13.5 1.5-3.6 2.7-8.5.3-13.5zm20.2 15c1-5.4-1.5-9-5.8-14a19.2 19.2 0 0 1 7.4 5l.3.4c.1.1.2.2.2.3a15.2 15.2 0 0 1 3.4 11.5c-.6 6.3-4.6 11-12.2 14.8 0-6.2 5.4-12 6.5-18z"/></g><path d="M378.6 442.5c2.4-5 1.8-8.7.2-13.7a12.2 12.2 0 0 1 3.8 5.7c.1.1.1.3.1.4s0 .2.1.3c1.2 4 .1 8.2-1 11.2-2.3 5.7-6.6 9.5-13 12 2-5.7 7.4-10.3 10-15.8z" class="I"/><path d="M61.5 422.4c-1-5.4 1.5-9 5.8-14a19.1 19.1 0 0 0-7.4 5c-.1.1-.2.3-.4.4l-.2.3a15.1 15.1 0 0 0-3.4 11.5c.6 6.3 4.6 11 12.2 14.8 0-6.2-5.4-12-6.5-18z" class="J"/><g class="I"><path d="M65 442.5c-2.4-5-1.8-8.7-.2-13.7a12.3 12.3 0 0 0-3.8 5.7c0 .1-.1.3-.1.4a2.8 2.8 0 0 1-.1.3c-1.2 4-.1 8.2 1 11.2 2.3 5.7 6.6 9.5 13 12-1.8-5.7-7.4-10.3-10-15.8z"/><path d="M39 461.4c7.3 5.5 28.6 1.5 31.5-7.8-10.2 4.8-20.4 6.4-31.5 7.8z"/></g><path d="M370.5 457.7a1156.2 1156.2 0 0 0-297.1 0q-2.8-22-5.7-44a1200.2 1200.2 0 0 1 308.5 0q-2.8 22-5.7 44z" class="M"/><path d="M94.3 446q-1.3-11-2.7-22.4l-4.7.6-.3-2.5q6.2-.8 12.3-1.5l.3 2.5-4.7.5q1.3 11.2 2.7 22.5zm11.4-20.5c-.4-3.8 1.3-6.5 5.2-7s6.2 2 6.5 5.7q.6 6.5 1.3 13c.4 3.8-1.3 6.5-5.2 7s-6-2-6.4-5.7zm4.2 12.8c.3 2.3 1.4 3.5 3.4 3.3s3-1.6 2.6-4q-.7-6.6-1.3-13.2c-.2-2.2-1.3-3.5-3.4-3.3s-3 1.7-2.7 4q.7 6.6 1.4 13.2zm20 4q-1-11.3-2-22.6l-4.7.4-.2-2.6q6.2-.6 12.4-1l.2 2.6-4.7.4q1 11.3 2 22.6zm14.8-6.4l-.6 5-2.6.2q1.4-12.7 3-25.5l4.2-.3q3.3 12.4 6.5 24.8l-2.8.2-1.3-5-6.4.4zm.2-2.4l5.7-.4q-2-7-4-14.3-1 7.4-1.8 14.7zm17 6.4q-.7-12.6-1.4-25.2l3-.2 1.2 22.6 7.2-.4v2.5q-5 .2-10 .5zm26.2-1q-.4-12.6-.8-25.2l3-.1.7 22.6 7.2-.2.1 2.6q-5 .1-10 .3zm19.3-5.6c-.3 1.7-.6 3.4-1 5H204q2.2-12.6 4.5-25.3h4.2q2.6 12.6 5 25.2H215q-.5-2.5-1-5zm.3-2.4h5.7q-1.5-7.3-3-14.5-1.3 7.3-2.7 14.6zm23.2 7.4h-4q-1.7-12.6-3.4-25.2h2.8q1.5 10.7 3 21.5 1.5-10.7 3-21.4h2.8q1.3 10.7 2.5 21.5 1.6-10.7 3.2-21.4l2.5.1q-2 12.6-4 25l-3.7-.1q-1-8.6-2.2-17-1.3 8.5-2.6 17zm21 .4l-2.5-.1.7-25.2 3.6.1q2.7 9.2 5.3 18.4.3-9 .7-18.2l2.5.1q-.5 12.6-1 25.2h-3q-3-10.3-6-20.6-.3 10.2-.6 20.4zm36 1.6l-2.7-.2q-1.5-10-3-20.3-.6 10-1 20H279l1.4-25.2 4 .2q1.5 10.2 3 20.3 2.6-10 5.3-19.8 2 .1 4 .3l-1.7 25-2.7-.2q.7-10 1.3-20.2-2.7 10-5.3 20zm26.6-17.2l-.2 2-2.7-.2.2-2.3c.2-2.3-.6-3.7-2.7-4s-3 1-3.3 3.4q-.5 6.6-1 13.3c-.2 2.3.7 3.7 2.7 4s3-1 3.3-3.4l.4-5h-2.6l.2-2.5 5.3.4q-.3 3.7-.6 7.4c-.3 3.8-2.4 6-6.2 5.8s-5.5-3-5.2-6.8q.5-6.5 1-13c.3-3.8 2.3-6.2 6.3-6s5.5 3 5.2 6.8zm14.6 20.6l-2.7-.3q-1-10.2-2.3-20.4-1 10-2 20H320l2.3-25 4 .4q1 10.2 2.2 20.4 3-9.8 6-19.6l4 .4-2.7 25-2.7-.3q1-10 2-20.2-3 10-6 19.8zm17.5 2q1.3-11.2 2.7-22.5l-4.7-.5.3-2.5q6.2.7 12.3 1.5l-.3 2.5-4.7-.6q-1.4 11.2-2.7 22.5z" class="K"/></svg>